<?xml version="1.0" encoding="UTF-8" standalone="no"?>
<!-- Created with Inkscape (http://www.inkscape.org/) -->

<svg
   width="142.2162mm"
   height="160.24915mm"
   viewBox="0 0 142.21621 160.24914"
   version="1.1"
   id="svg1550"
   sodipodi:docname="cardbg2.svg"
   inkscape:version="1.2.2 (732a01da63, 2022-12-09)"
   xmlns:inkscape="http://www.inkscape.org/namespaces/inkscape"
   xmlns:sodipodi="http://sodipodi.sourceforge.net/DTD/sodipodi-0.dtd"
   xmlns="http://www.w3.org/2000/svg"
   xmlns:svg="http://www.w3.org/2000/svg">
  <sodipodi:namedview
     id="namedview1552"
     pagecolor="#505050"
     bordercolor="#ffffff"
     borderopacity="1"
     inkscape:showpageshadow="0"
     inkscape:pageopacity="0"
     inkscape:pagecheckerboard="1"
     inkscape:deskcolor="#505050"
     inkscape:document-units="mm"
     showgrid="false"
     inkscape:zoom="0.71624579"
     inkscape:cx="51.658244"
     inkscape:cy="180.80385"
     inkscape:window-width="2400"
     inkscape:window-height="1261"
     inkscape:window-x="2391"
     inkscape:window-y="-9"
     inkscape:window-maximized="1"
     inkscape:current-layer="layer1" />
  <defs
     id="defs1547">
    <inkscape:path-effect
       effect="bspline"
       id="path-effect2068"
       is_visible="true"
       lpeversion="1"
       weight="33.333333"
       steps="2"
       helper_size="0"
       apply_no_weight="true"
       apply_with_weight="true"
       only_selected="false" />
  </defs>
  <g
     inkscape:label="Layer 1"
     inkscape:groupmode="layer"
     id="layer1"
     transform="translate(-28.803451,-19.652903)">
    <path
       style="fill:#ffe2b3;stroke-width:0.264583"
       d="m 119.83621,22.15322 c 5.11015,-0.246307 5.72582,-3.9e-5 11.26691,0.246257 5.54109,0.246295 16.0073,0.492559 23.45708,2.462737 7.44979,1.970178 11.88254,5.664135 14.22211,17.793213 2.33956,12.129078 2.58583,32.692101 1.90855,47.65303 -0.67729,14.960933 -2.278,24.318963 -2.46264,31.645453 -0.18464,7.32649 1.04668,12.62116 1.47762,19.14739 0.43094,6.52624 0.0615,14.28355 -3.017,21.11756 -3.07854,6.83402 -8.86574,12.74434 -18.47035,15.51472 -9.60461,2.77038 -23.02598,2.40099 -36.87873,1.53903 C 97.487019,178.41064 83.203719,177.05619 71.998391,176.68682 60.793063,176.31744 52.666363,176.9331 45.83249,174.65505 38.998617,172.377 33.457684,167.20546 31.364406,157.66256 29.271127,148.11966 30.625577,134.20576 30.440889,121.70748 30.256202,109.2092 28.532356,98.127333 28.840158,87.968706 29.14796,77.81008 31.487463,68.57519 32.226318,61.67957 c 0.738856,-6.895621 -0.123067,-11.4515 0.677268,-18.162356 0.800335,-6.710855 3.262972,-15.57635 7.880489,-20.009343 4.617517,-4.432993 11.389767,-4.432993 17.546618,-3.016947 6.156852,1.416047 11.697791,4.248081 17.792906,5.048496 6.095114,0.800416 12.744235,-0.430903 20.871208,-1.416003 8.126973,-0.985099 17.731253,-1.72389 22.841403,-1.970197 z"
       id="path2066"
       inkscape:path-effect="#path-effect2068"
       inkscape:original-d="m 124.33082,21.660699 c 0.61541,0.246533 1.23108,0.492802 1.84702,0.738806 10.46636,0.246538 20.93257,0.492802 31.39925,0.738806 4.43266,3.694368 8.86541,7.388325 13.29851,11.082088 0.24601,20.564109 0.49227,41.127132 0.7388,61.690299 -1.60104,9.358652 -3.20175,18.716682 -4.80223,28.074622 1.2311,5.29515 2.46242,10.58982 3.69403,15.88433 -0.36968,7.75788 -0.73907,15.51519 -1.10821,23.27239 -5.7877,5.91083 -11.57489,11.82116 -17.36194,17.73134 -13.42218,-0.36914 -26.84355,-0.73854 -40.26493,-1.10821 -14.284128,-1.35424 -28.567428,-2.70869 -42.850738,-4.06343 -8.1273,0.61595 -16.254,1.23161 -24.3806,1.84701 -5.54142,-5.17148 -11.08235,-10.34302 -16.62313,-15.51492 1.35423,-13.91419 2.70869,-27.82809 4.06343,-41.74254 -1.72418,-11.08204 -3.44803,-22.16391 -5.17164,-33.246263 2.33933,-9.234995 4.67883,-18.469885 7.01865,-27.705224 -0.86222,-4.555797 -1.72414,-9.111676 -2.58582,-13.66791 2.46247,-8.865584 4.92511,-17.731078 7.38806,-26.597015 6.77226,2.65e-4 13.54451,2.65e-4 20.31716,0 5.54089,2.832411 11.08183,5.664444 16.62314,8.496269 6.64912,-1.231103 13.29824,-2.462423 19.94776,-3.69403 9.604408,-0.738556 19.208688,-1.477347 28.813428,-2.216418 z" />
  </g>
</svg>
