<?xml version="1.0" encoding="UTF-8" standalone="no"?>
<!-- Created with Inkscape (http://www.inkscape.org/) -->

<svg
   width="38.447655mm"
   height="37.095222mm"
   viewBox="0 0 38.447655 37.095222"
   version="1.1"
   id="svg1590"
   inkscape:version="1.2.2 (732a01da63, 2022-12-09)"
   sodipodi:docname="clockicon.svg"
   xmlns:inkscape="http://www.inkscape.org/namespaces/inkscape"
   xmlns:sodipodi="http://sodipodi.sourceforge.net/DTD/sodipodi-0.dtd"
   xmlns="http://www.w3.org/2000/svg"
   xmlns:svg="http://www.w3.org/2000/svg">
  <sodipodi:namedview
     id="namedview1592"
     pagecolor="#505050"
     bordercolor="#ffffff"
     borderopacity="1"
     inkscape:showpageshadow="0"
     inkscape:pageopacity="0"
     inkscape:pagecheckerboard="1"
     inkscape:deskcolor="#505050"
     inkscape:document-units="mm"
     showgrid="false"
     inkscape:zoom="5.7299664"
     inkscape:cx="75.742155"
     inkscape:cy="56.021271"
     inkscape:window-width="2400"
     inkscape:window-height="1261"
     inkscape:window-x="2391"
     inkscape:window-y="-9"
     inkscape:window-maximized="1"
     inkscape:current-layer="layer4" />
  <defs
     id="defs1587" />
  <g
     inkscape:groupmode="layer"
     id="layer4"
     inkscape:label="clock"
     transform="translate(-89.842406,-106.68)">
    <g
       id="g3118"
       transform="matrix(0.34867844,0,0,0.34867844,71.037189,81.563443)">
      <path
         style="fill:#9ed1d7;fill-opacity:1;stroke-width:0.264583"
         d="m 110.45149,72.033582 15.51493,2.40112 16.99253,8.126865 12.1903,12.744402 9.05038,24.934701 -1.10821,17.36194 c 0,0 -8.86568,18.47015 -9.60448,19.02425 -0.73881,0.55411 -9.41978,9.60448 -9.41978,9.60448 0,0 -12.375,9.05037 -17.17724,9.97388 -4.80223,0.92351 -20.50186,2.21642 -20.50186,2.21642 0,0 -12.190301,-2.21642 -14.776122,-2.58582 -2.58582,-0.3694 -17.361939,-8.49627 -18.470147,-9.60448 C 72.033582,165.12313 62.0597,152.93283 62.0597,152.00933 c 0,-0.92351 -2.216417,-3.32463 -4.432834,-9.97388 -2.21642,-6.64926 -3.694031,-13.48321 -3.694031,-14.96083 0,-1.47761 2.40112,-19.76305 3.139924,-20.50186 0.738807,-0.73881 10.897389,-16.623135 10.897389,-16.623135 L 81.453357,79.42164 c 0,0 16.992539,-6.649252 18.285449,-6.649252 1.292914,0 10.712684,-0.738806 10.712684,-0.738806 z"
         id="path2187" />
      <path
         style="fill:#f9f9f9;fill-opacity:1;stroke-width:0.264583"
         id="path3078"
         d="m 109.72679,78.187057 c 0,1.276334 0,2.552665 0,3.829 0,0.924758 0,1.849519 0,2.77428 0,0.474221 0,0.948441 0,1.422662 0,0.478592 0,0.957186 0,1.43578 0,0.6672 0,1.3344 0,2.001599 0,0.763678 1.08,0.763678 1.08,0 v 0 c 0,-0.667199 0,-1.334399 0,-2.001599 0,-0.478594 0,-0.957188 0,-1.43578 0,-0.474221 0,-0.948441 0,-1.422662 0,-0.924761 0,-1.849522 0,-2.77428 0,-1.276335 0,-2.552666 0,-3.829 0,-0.763675 -1.08,-0.763675 -1.08,0 z" />
      <path
         style="fill:#f9f9f9;fill-opacity:1;stroke-width:0.264583"
         id="path3080"
         d="m 139.62779,91.351969 c -1.1402,0.875149 -2.19143,1.85796 -3.2919,2.782377 -1.09297,0.936826 -2.36113,1.603669 -3.64443,2.233462 -0.39482,0.190558 -0.77417,0.409249 -1.16542,0.606602 -0.68153,0.34454 -0.19428,1.308378 0.48725,0.963837 v 0 c 0.38714,-0.196103 0.76378,-0.410712 1.15402,-0.600919 1.36165,-0.668364 2.70345,-1.382937 3.86324,-2.376037 1.08122,-0.908291 2.11498,-1.872692 3.23247,-2.735887 0.61761,-0.449173 -0.0176,-1.322607 -0.63523,-0.873435 z" />
      <path
         style="fill:#f9f9f9;fill-opacity:1;stroke-width:0.264583"
         id="path3082"
         d="m 152.15354,107.43583 c -2.33285,1.44546 -4.85118,2.57975 -7.35985,3.68277 -1.61526,0.72109 -3.26563,1.36014 -4.88288,2.07619 -0.69825,0.30928 -0.26085,1.29675 0.43739,0.98746 v 0 c 1.61615,-0.7162 3.2663,-1.3535 4.88034,-2.07507 2.57115,-1.13141 5.15303,-2.29388 7.53975,-3.78339 0.62789,-0.43469 0.0131,-1.32266 -0.61475,-0.88796 z" />
      <path
         style="fill:#f9f9f9;fill-opacity:1;stroke-width:0.264583"
         id="path3084"
         d="m 154.98046,127.27343 c -2.09419,0 -4.18837,0 -6.28255,0 -1.1959,0 -0.6172,-0.008 -1.73616,0.0223 -0.76338,0.0212 -0.7334,1.10078 0.03,1.07958 v 0 c 1.08897,-0.0305 0.52027,-0.0219 1.70618,-0.0219 2.09418,0 4.18836,0 6.28255,0 0.76367,0 0.76367,-1.08 0,-1.08 z" />
      <path
         style="fill:#f9f9f9;fill-opacity:1;stroke-width:0.264583"
         id="path3086"
         d="m 139.22015,158.20086 c -0.82966,-1.94974 -1.73617,-3.86176 -2.7208,-5.73751 -0.35505,-0.67612 -1.31123,-0.174 -0.95618,0.50212 v 0 c 0.968,1.84262 1.85785,3.72142 2.67422,5.63649 0.28363,0.70906 1.28638,0.30795 1.00276,-0.4011 z" />
      <path
         style="fill:#f9f9f9;fill-opacity:1;stroke-width:0.264583"
         id="path3088"
         d="m 118.1378,169.05528 c -0.81694,-4.59594 -1.46779,-9.21786 -2.08068,-13.84466 -0.10029,-0.75706 -1.17093,-0.61523 -1.07064,0.14183 v 0 c 0.61705,4.65779 1.27168,9.31089 2.09704,13.93712 0.16566,0.74549 1.21995,0.5112 1.05428,-0.23429 z" />
      <path
         style="fill:#f9f9f9;fill-opacity:1;stroke-width:0.264583"
         id="path3090"
         d="m 88.171365,167.46333 c 1.231459,-2.32096 2.601593,-4.56594 3.842298,-6.88175 0.331081,-0.61797 0.642366,-1.24634 0.963549,-1.86951 0.730364,-1.4149 1.318784,-2.89244 1.884476,-4.37811 0.27155,-0.71376 -0.737867,-1.0978 -1.009417,-0.38403 v 0 c -0.5505,1.44823 -1.123484,2.88842 -1.835115,4.26748 -0.315836,0.61318 -0.6218,1.23154 -0.947505,1.83954 -1.253313,2.33959 -2.640179,4.60616 -3.878882,6.95379 -0.320024,0.69339 0.660572,1.14597 0.980596,0.45259 z" />
      <path
         style="fill:#f9f9f9;fill-opacity:1;stroke-width:0.264583"
         id="path3092"
         d="m 71.174987,148.94428 c 1.401482,-0.23778 2.811172,-0.46225 4.192003,-0.80552 0.704871,-0.17523 1.0477,-0.30092 1.721326,-0.52274 0.232633,-0.0941 0.465265,-0.18821 0.697897,-0.28232 0.707477,-0.28753 0.30085,-1.28805 -0.40663,-1.00053 v 0 c -0.209897,0.0858 -0.419791,0.17149 -0.629687,0.25724 -0.614749,0.20328 -0.974741,0.33419 -1.614982,0.49358 -1.36275,0.33927 -2.754244,0.56033 -4.137478,0.79498 -0.753284,0.12555 -0.575733,1.19086 0.177551,1.06531 z" />
      <path
         style="fill:#f9f9f9;fill-opacity:1;stroke-width:0.264583"
         id="path3094"
         d="m 62.415329,122.92538 c 3.761904,-0.0516 7.524139,0.008 11.286241,-0.003 0.763673,-0.002 0.760627,-1.08214 -0.003,-1.07999 v 0 c -3.811966,0.0108 -7.624427,-0.0587 -11.435929,0.0134 -0.756002,0.108 -0.603266,1.17714 0.152733,1.06914 z" />
      <path
         style="fill:#f9f9f9;fill-opacity:1;stroke-width:0.264583"
         id="path3096"
         d="m 75.634876,95.442647 c 1.243758,1.581531 2.762628,2.926641 4.240646,4.283046 1.309444,1.185277 0.664977,0.610097 1.932371,1.726717 0.573024,0.50482 1.286947,-0.30556 0.713923,-0.81038 v 0 c -1.254742,-1.1053 -0.615675,-0.53501 -1.916102,-1.712087 -1.446424,-1.327103 -2.934941,-2.641534 -4.150842,-4.190151 -0.496993,-0.579824 -1.31699,0.123031 -0.819996,0.702855 z" />
      <path
         style="fill:#f9f9f9;fill-opacity:1;stroke-width:0.264583"
         id="path3098"
         d="m 90.292398,119.2837 c 0.889484,0.94981 1.910932,1.75655 2.90358,2.59259 1.551858,1.22747 3.04043,2.53172 4.603824,3.74422 1.218951,0.97264 2.518568,1.84235 3.702408,2.85836 0.46557,0.3376 0.827,0.78005 1.21729,1.19515 0.45761,0.54132 0.96726,1.0307 1.48811,1.50962 0.26575,0.25113 0.1229,0.12109 0.43029,0.38819 1.11332,0.96111 2.47253,-0.61336 1.35921,-1.57446 v 0 c -0.24617,-0.21059 -0.11814,-0.0962 -0.38218,-0.34533 -0.4842,-0.44463 -0.95705,-0.89946 -1.38095,-1.40376 -0.44171,-0.46852 -0.85683,-0.9638 -1.37885,-1.34929 -1.21191,-1.0358 -2.53179,-1.93398 -3.781534,-2.92282 -1.542473,-1.19339 -3.006498,-2.48331 -4.537993,-3.69104 -0.947558,-0.79748 -1.924508,-1.56485 -2.772424,-2.47221 -1.04,-1.04 -2.510782,0.43078 -1.470781,1.47078 z" />
      <path
         style="fill:#f9f9f9;fill-opacity:1;stroke-width:0.264583"
         id="path3100"
         d="m 109.10025,130.09806 c -0.66592,0.0183 -1.65498,0.0626 -2.26585,0.34388 -0.19771,0.091 -0.37596,0.21944 -0.56394,0.32916 -0.17526,0.29268 -0.42375,0.55252 -0.52579,0.87804 -0.3886,1.23971 0.69829,2.71752 1.50087,3.52932 0.27324,0.27637 0.58128,0.51601 0.87191,0.77401 0.77993,0.59045 1.60471,1.13187 2.49094,1.55089 0.24274,0.11477 0.96772,0.42132 1.26706,0.44097 0.2835,0.0186 0.56624,-0.0472 0.84936,-0.0708 0.25667,-0.17613 0.5658,-0.29345 0.77002,-0.52839 0.85101,-0.97905 0.54649,-2.6953 0.30042,-3.83169 -0.31678,-0.9921 -0.53579,-2.19347 -1.22631,-3.0127 -0.13735,-0.16295 -0.31006,-0.29246 -0.46509,-0.43869 -0.2421,-0.1201 -0.4736,-0.26449 -0.7263,-0.36031 -1.01499,-0.38487 -2.19424,-0.2625 -3.2368,-0.0818 -0.2078,0.0752 -0.42422,0.12997 -0.6234,0.22573 -0.82979,0.39895 -1.42443,1.20228 -1.51836,2.12748 -0.0246,0.24276 0.0134,0.48783 0.0201,0.73174 0.0832,0.25221 0.13912,0.51512 0.24961,0.75663 0.39685,0.86745 1.21981,1.53266 2.12379,1.81377 0.22582,0.0702 0.46379,0.0927 0.69568,0.13912 0.76972,0.004 1.36233,-0.13312 1.90644,-0.7325 0.48839,-0.53802 0.59961,-1.28282 0.71161,-1.96407 0.0336,-0.97182 0.0816,-2.54406 -1.19784,-2.8372 -0.32749,-0.075 -0.65655,0.14306 -0.98483,0.21459 -0.1699,0.17984 -0.36379,0.33972 -0.50971,0.53951 -0.11334,0.15519 -0.18401,0.33804 -0.2601,0.51451 -0.28886,0.66991 -0.3095,1.27604 -0.23883,1.98765 0.16742,0.88435 0.66745,1.61667 1.52516,1.95697 0.1554,0.0617 0.32334,0.0851 0.48501,0.12767 0.19202,-0.004 0.38874,0.0296 0.57604,-0.0129 0.98798,-0.22416 1.24774,-0.90698 1.14181,-1.85249 -0.0517,-0.46158 -0.34606,-0.86902 -0.57055,-1.25174 -0.34864,-0.43027 -0.82671,-1.06441 -1.37393,-1.26745 -0.1601,-0.0594 -0.33041,-0.0864 -0.49562,-0.12965 -1.46765,-0.0959 -1.60325,1.9797 -0.1356,2.07558 v 0 c -0.12242,-0.0404 -0.24473,-0.0812 -0.36728,-0.12127 -0.0152,-0.005 0.0311,0.008 0.0451,0.016 0.23025,0.12655 0.39898,0.33004 0.5638,0.52973 0.0573,0.0791 0.11902,0.15521 0.1718,0.2374 0.0382,0.0595 0.0304,0.195 0.10055,0.18669 0.0843,-0.01 0.0776,-0.15395 0.13677,-0.21478 0.184,-0.18908 0.38206,-0.35288 0.64073,-0.22939 -0.23559,0.041 -0.3171,-0.0719 -0.37909,-0.30197 -0.0378,-0.21027 -0.0611,-0.40319 -0.0137,-0.6158 0.0213,-0.0953 0.1294,-0.39535 0.12348,-0.40239 -0.0313,-0.0373 -0.0939,0.0254 -0.1409,0.038 -0.87042,-0.0232 -0.38715,0.12857 -1.07127,-0.55357 -0.0309,-0.0308 0.0504,0.0723 0.0661,0.11296 0.11642,0.30162 0.11272,0.63165 0.10518,0.94897 -0.0696,0.58805 -0.005,0.15653 -0.11332,0.66986 -0.01,0.0462 -0.0495,0.10042 -0.0234,0.13979 0.0243,0.0366 0.11966,-0.0217 0.13001,0.0209 0.006,0.0259 -0.22574,0.1142 -0.22957,0.11578 -0.57152,-0.015 -1.03685,-0.34202 -1.32042,-0.8273 -0.15553,-0.44241 0.0108,-0.69262 0.42521,-0.86694 0.73628,-0.14815 1.48568,-0.16742 2.22368,-0.0324 0.12085,0.0758 0.21849,0.11925 0.29529,0.25301 0.35034,0.61018 0.51022,1.41301 0.72821,2.07644 0.0798,0.35093 0.16782,0.68152 0.20243,1.04032 0.0144,0.14886 0.0141,0.29892 0.0133,0.44847 -5.3e-4,0.11171 -0.0367,0.22461 -0.0175,0.33465 0.0185,0.10611 0.33294,0.0701 0.31833,0.0553 0.0388,0.0298 0.16521,0.0871 0.11636,0.0894 -0.18081,0.008 -0.72432,-0.22394 -0.82664,-0.27153 -0.41145,-0.1914 -0.96814,-0.51099 -1.33915,-0.75225 -0.25389,-0.1651 -0.49652,-0.3469 -0.74478,-0.52035 -0.5585,-0.47893 -0.7524,-0.59729 -1.20094,-1.15323 -0.12234,-0.15164 -0.22486,-0.31845 -0.32914,-0.48303 -0.0711,-0.11217 -0.20298,-0.40486 -0.25418,-0.39873 -0.0975,0.0117 -0.17345,0.0919 -0.26017,0.1379 0.0202,-0.14789 -0.009,-0.0707 0.26874,-0.14591 0.4501,-0.12187 0.92417,-0.17531 1.38927,-0.16565 1.47078,0 1.47078,-2.08 0,-2.08 z" />
      <path
         style="fill:#f9f9f9;fill-opacity:1;stroke-width:0.264583"
         id="path3102"
         d="m 111.66825,133.30039 c 0.13417,-0.15797 0.25499,-0.32833 0.40252,-0.4739 1.2269,-1.2107 2.72871,-2.14418 4.16609,-3.07457 2.98135,-1.88679 1.50226,-0.93599 4.43751,-2.852 1.61977,-1.09803 3.26484,-2.1812 4.74448,-3.46896 0.59464,-0.51753 1.18953,-1.09733 1.64064,-1.75118 0.19397,-0.28114 0.33706,-0.59416 0.50559,-0.89124 0.61404,-1.28019 0.65219,-2.68306 0.63161,-4.07241 0.02,-0.65576 -0.10486,-1.31781 -0.0499,-1.97235 0.097,-0.22819 0.16333,-0.4824 0.31709,-0.68112 0.22969,-0.34595 0.53576,-0.63665 0.8134,-0.94518 0.42946,-0.45043 0.82795,-0.92516 1.15852,-1.45283 0.22241,-0.40134 0.39513,-0.82894 0.57727,-1.24984 0.58358,-1.35005 -1.32568,-2.17535 -1.90926,-0.8253 v 0 c -0.14318,0.33164 -0.28133,0.66652 -0.4422,0.98949 -0.24937,0.42767 -0.60129,0.78124 -0.93052,1.14719 -0.34533,0.38381 -0.7181,0.74941 -0.99933,1.18489 -0.33073,0.51889 -0.57622,1.09846 -0.66142,1.71119 -0.033,0.70898 0.0358,1.41687 0.0466,2.12605 0.0166,1.02675 0.0339,2.07997 -0.37708,3.04273 -0.10046,0.19513 -0.18065,0.4021 -0.30138,0.58538 -0.35946,0.5457 -0.84163,1.01252 -1.32942,1.43872 -1.42347,1.24374 -3.01201,2.28364 -4.57171,3.34305 -2.9239,1.90893 -1.43995,0.95449 -4.45269,2.86201 -1.60935,1.04363 -3.27188,2.09376 -4.61652,3.48039 -0.2042,0.21057 -0.3698,0.4554 -0.5547,0.68309 -0.78963,1.24085 0.96519,2.35755 1.75481,1.1167 z" />
    </g>
    <path
       style="fill:#f9f9f9;stroke-width:0.264583"
       id="path626"
       d="m 109.15782,109.2287 c 0.0113,0.26306 -0.0188,0.52406 -0.0459,0.78513 -0.0216,0.26271 -0.0424,0.5254 -0.0636,0.78817 -0.0194,0.24266 -0.0251,0.48607 -0.0281,0.72939 -0.002,0.1784 -0.002,0.3568 -10e-4,0.53519 2e-4,0.14368 2.7e-4,0.28735 3.2e-4,0.43102 4e-5,0.10618 4e-5,0.21235 4e-5,0.31853 3e-5,0.76367 1.08003,0.76364 1.08,-3e-5 v 0 c 0,-0.1063 0,-0.21259 -4e-5,-0.31889 -5e-5,-0.1439 -1.3e-4,-0.28781 -3.2e-4,-0.43171 -1.7e-4,-0.17357 -3.1e-4,-0.34714 10e-4,-0.5207 0.003,-0.21896 0.007,-0.43801 0.0247,-0.65639 0.0204,-0.25446 0.0408,-0.50884 0.0613,-0.76327 0.0309,-0.29799 0.0626,-0.59628 0.0516,-0.89644 0,-0.76367 -1.08,-0.76367 -1.08,0 z" />
    <path
       style="fill:#f9f9f9;stroke-width:0.264583"
       id="path628"
       d="m 119.39823,113.15501 c -0.3614,0.25581 -0.72438,0.50879 -1.07519,0.7791 -0.27339,0.21787 -0.52078,0.465 -0.79018,0.68746 -0.0919,0.085 -0.20227,0.13611 -0.31427,0.18796 -0.6898,0.32767 -0.22641,1.3032 0.4634,0.97554 v 0 c 0.19087,-0.0921 0.37889,-0.18957 0.53898,-0.33109 0.25991,-0.21506 0.50119,-0.45065 0.76184,-0.66482 0.33072,-0.25558 0.67407,-0.49322 1.01449,-0.73554 0.63542,-0.42361 0.0363,-1.32222 -0.59907,-0.89861 z" />
    <path
       style="fill:#f9f9f9;stroke-width:0.264583"
       id="path630"
       d="m 123.85033,118.58129 c -0.48717,0.22473 -0.97969,0.43811 -1.473,0.64905 -0.40027,0.15735 -0.79762,0.32093 -1.1899,0.49724 -0.35307,0.14144 -0.70342,0.2887 -1.04913,0.44728 -0.42281,0.19729 0.0514,-0.0232 -0.32375,0.14923 -0.46479,0.2137 -0.4921,0.28011 -0.0604,1.11523 0.0482,0.0933 0.21003,-0.002 0.31504,-0.003 0.68825,-0.14631 1.3586,-0.36787 2.02514,-0.59095 0.55448,-0.19405 1.12482,-0.35194 1.649,-0.62155 0.37472,-0.22321 0.54381,-0.53549 0.23627,-0.97572 -0.17401,-0.24909 -0.44035,-0.14328 -0.65965,-0.11043 -0.052,0.0281 -0.10582,0.0531 -0.15614,0.0842 -0.14425,0.089 -0.2797,0.19157 -0.42082,0.28547 -0.24907,0.16576 -0.50132,0.32694 -0.753,0.48869 -0.27102,0.17986 -0.14489,0.0941 -0.37903,0.25617 -0.62776,0.43488 -0.0127,1.32266 0.61502,0.88778 v 0 c 0.21207,-0.1471 0.0963,-0.0683 0.34794,-0.23542 0.38662,-0.24851 0.77851,-0.4927 1.14864,-0.76473 -0.17826,0.009 -0.39212,0.0636 -0.51878,-0.14039 -0.14745,-0.23744 -0.2124,-0.59098 0.0661,-0.75354 0.01,-0.006 -0.0177,0.0138 -0.0266,0.0207 -0.46888,0.25119 -0.99713,0.36744 -1.49188,0.55471 -0.60294,0.20198 -1.20888,0.39966 -1.82838,0.545 0.0324,0.009 0.0894,-0.006 0.0971,0.0266 0.0749,0.31706 0.0958,0.64452 0.13761,0.9676 5.3e-4,0.004 -0.0158,0.003 -0.0122,10e-4 0.14487,-0.074 0.29819,-0.13082 0.44304,-0.20489 0.34317,-0.15749 0.69154,-0.30221 1.04155,-0.44383 0.38624,-0.17365 0.77784,-0.33382 1.17175,-0.48928 0.52066,-0.22267 1.04113,-0.44679 1.55366,-0.68757 0.67492,-0.35731 0.16961,-1.3118 -0.50532,-0.95449 z" />
    <path
       style="fill:#f9f9f9;stroke-width:0.264583"
       id="path632"
       d="m 124.26913,125.30278 c -0.75878,5.6e-4 -1.51726,0.0263 -2.27543,0.0547 -0.58512,0.0407 -0.82799,0.003 -0.50625,1.08966 0.038,0.12824 0.26257,0.0528 0.39547,0.0678 0.0946,0.0107 0.64975,0.0267 0.73592,0.0295 0.31069,0.009 0.62145,0.0145 0.93224,0.0189 0.065,9.3e-4 0.13009,6.4e-4 0.19511,0.002 0.11112,0.003 0.0829,-0.0165 0.11969,0.0121 -0.14781,-0.16722 -0.37721,-0.28853 -0.44345,-0.50166 -0.0423,-0.13629 0.11703,-0.26068 0.16474,-0.39518 0.003,-0.007 -0.0129,-0.0119 -0.0206,-0.0111 -0.0472,0.005 -0.0928,0.02 -0.13956,0.0284 -0.18027,0.0324 -0.21934,0.0349 -0.40408,0.0583 -0.54691,0.0669 -0.6018,0.0121 -0.20312,1.11737 0.0343,0.095 0.20182,0.009 0.3028,0.0116 0.15367,0.004 0.61277,0.005 0.75931,0.006 0.12303,-0.002 0.24606,-0.003 0.3691,-0.005 0.76361,-0.01 0.74963,-1.08979 -0.014,-1.07991 v 0 c -0.11653,0.002 -0.23306,0.003 -0.34959,0.005 -0.66147,-0.003 -0.11536,9e-5 -0.73609,-0.006 -0.0598,-5.6e-4 -0.16645,-0.0596 -0.17932,-0.001 -0.26446,1.1995 -0.34026,1.08463 0.18884,1.02299 0.2553,-0.0333 0.5235,-0.0581 0.76905,-0.14082 0.091,-0.0306 0.1989,-0.0433 0.26486,-0.11308 0.13297,-0.14063 0.33222,-0.30045 0.30765,-0.49242 -0.0304,-0.23772 -0.29542,-0.37744 -0.44314,-0.56616 -0.16569,-0.025 -0.32387,-0.0295 -0.49154,-0.0319 -0.3047,-0.004 -0.60939,-0.01 -0.914,-0.0185 -0.12095,-0.004 -0.24192,-0.007 -0.36283,-0.0117 -0.10389,-0.004 -0.20771,-0.0186 -0.31158,-0.0141 -0.0152,6.6e-4 -0.0324,0.0142 -0.0352,0.0292 -0.0634,0.33008 -0.10779,0.66354 -0.16169,0.99532 0.009,-0.004 0.0163,-0.0102 0.0255,-0.0112 0.0752,-0.008 0.15088,-0.0106 0.22632,-0.0159 0.74465,-0.028 1.48961,-0.0534 2.23486,-0.054 0.76368,0 0.76368,-1.08 0,-1.08 z" />
    <path
       style="fill:#f9f9f9;stroke-width:0.264583"
       id="path634"
       d="m 122.42029,132.27276 c -0.44307,-0.39879 -0.88743,-0.79785 -1.28457,-1.24326 -0.044,0.20973 -0.0773,-0.20124 -0.10903,-0.14861 -0.1654,0.27472 -0.32387,0.55504 -0.4543,0.84799 -0.01,0.0225 0.0339,0.0365 0.0545,0.0499 0.0715,0.0467 0.1473,0.0866 0.22095,0.12985 0.0852,0.0559 0.17032,0.11191 0.25549,0.16787 0.22092,0.15175 0.44635,0.29685 0.66556,0.4511 0.0382,0.0269 0.0762,0.054 0.11336,0.0822 0.007,0.005 0.0141,0.0258 0.0194,0.0186 0.21419,-0.28845 0.41397,-0.58733 0.62096,-0.881 -0.48709,-0.44457 -0.94613,-0.91997 -1.41121,-1.38753 -0.1691,-0.1662 -0.33834,-0.33229 -0.50819,-0.4977 -0.0875,-0.0852 -0.0514,-0.0434 -0.0809,-0.078 -0.53029,-0.54954 -1.30745,0.20041 -0.77716,0.74995 v 0 c 0.19639,0.19955 0.40458,0.38742 0.60058,0.58743 0.30443,0.30604 0.60839,0.61259 0.91535,0.9161 0.12129,0.11992 0.35057,0.34689 0.48588,0.46709 0.0494,0.0439 0.10225,0.0836 0.15337,0.12537 0.23327,-0.27514 0.49557,-0.52809 0.69982,-0.82541 0.0208,-0.0302 -0.0557,-0.0476 -0.0848,-0.0698 -0.26399,-0.20104 -0.55041,-0.37095 -0.82114,-0.56234 -0.17174,-0.11175 -0.40413,-0.27081 -0.59065,-0.36282 -0.11005,-0.0543 -0.23793,-0.21322 -0.33897,-0.14359 -0.87017,0.59967 -0.77612,0.6573 -0.43353,1.08374 0.4254,0.47363 0.89463,0.90397 1.3691,1.32777 0.56912,0.50921 1.28926,-0.29565 0.72014,-0.80486 z" />
    <path
       style="fill:#f9f9f9;stroke-width:0.264583"
       id="path636"
       d="m 120.10191,136.15129 c -0.0407,-0.0905 -0.0792,-0.1821 -0.12203,-0.27165 -0.11103,-0.23225 -0.32545,-0.6475 -0.43792,-0.86811 -0.21079,-0.41347 -0.42174,-0.82658 -0.63839,-1.237 -0.14099,-0.25528 -0.36145,-0.82372 -0.81624,-0.63176 -0.60692,0.25617 -0.40537,0.77659 -0.31266,1.17676 0.0919,0.40892 0.21583,0.81491 0.25895,1.23312 0.0411,-0.15322 -0.008,0.18898 0.001,0.14243 0.0505,-0.25148 0.003,-0.40233 0.46187,-0.47417 0.16359,-0.0256 0.29669,0.16824 0.46156,0.18361 -0.1924,-0.61906 -0.40068,-1.23291 -0.61536,-1.84454 -0.0697,-0.20512 -0.21108,-0.81471 -0.56627,-0.68956 -0.78236,0.27568 -0.59919,0.6873 -0.49169,1.14251 0.0873,0.33595 0.1576,0.67587 0.23485,1.01416 0.17009,0.74449 1.22296,0.50394 1.05287,-0.24055 v 0 c -0.0779,-0.34102 -0.1488,-0.68372 -0.23676,-1.0224 -0.0153,-0.0643 -0.031,-0.12844 -0.0458,-0.19284 -0.11341,-0.49476 0.12843,0.25045 -0.6523,0.37017 -0.3199,0.049 -0.51952,-0.63721 -0.38463,-0.23586 0.0237,0.0706 0.0471,0.14141 0.0707,0.21212 0.21591,0.61491 0.42404,1.23244 0.61887,1.8544 0.11652,0.26654 0.17963,0.54181 0.61971,0.52678 0.40027,-0.0137 0.50363,-0.28802 0.55171,-0.56602 0.0122,-0.0707 -0.003,-0.23208 -0.007,-0.30168 -0.0548,-0.45919 -0.1706,-0.90797 -0.28022,-1.35656 -0.0175,-0.0746 -0.0351,-0.14922 -0.0524,-0.22389 -0.009,-0.0404 0.006,-0.14631 -0.0275,-0.12135 -0.17037,0.12842 -0.22605,0.42531 -0.43472,0.46975 -0.4317,0.0919 -0.69043,-0.51298 -0.48665,-0.14799 0.0421,0.0753 0.0822,0.15174 0.12325,0.2276 0.39433,0.74674 0.78185,1.4981 1.14539,2.26022 0.27414,0.71277 1.28215,0.32507 1.00801,-0.3877 z" />
    <path
       style="fill:#f9f9f9;stroke-width:0.264583"
       id="path638"
       d="m 111.02322,137.44933 c 0.0517,0.67503 0.054,1.35316 0.0636,2.02984 -0.003,0.22833 0.0101,0.45669 0.007,0.68502 -6.6e-4,0.0525 -0.0451,0.19505 -0.009,0.15732 0.12712,-0.1313 0.12437,-0.4094 0.30036,-0.45868 0.70773,-0.1982 0.76985,0.59211 0.62768,-0.12318 -0.20855,-1.06947 -0.41765,-2.13883 -0.5992,-3.21327 -0.046,-0.29235 -0.0884,-0.58526 -0.12887,-0.87843 -0.005,-0.0326 -0.003,-0.0665 -0.0128,-0.098 -0.0249,-0.0805 -0.008,-0.25062 -0.0906,-0.23608 -0.35059,0.0614 -0.65344,0.28238 -0.98016,0.42356 0.0344,0.59745 -0.0238,-0.40882 0.028,0.45959 0.0215,0.36098 0.0136,0.34739 0.0598,0.73503 0.045,0.378 0.0653,0.46799 0.1292,0.8415 0.0586,0.2911 0.11867,0.5828 0.20272,0.86789 0.008,0.0261 0.0838,0.27507 0.11661,0.29517 0.18902,0.11592 0.40463,0.18147 0.60695,0.2722 0.74828,-0.15257 0.53251,-1.2108 -0.21577,-1.05823 v 0 c 0.18783,0.0937 0.37853,0.18183 0.56349,0.28106 0.007,0.004 0.007,0.0308 0.004,0.0234 -0.10898,-0.27622 -0.14247,-0.57841 -0.21368,-0.8645 -0.0601,-0.34782 -0.0764,-0.41641 -0.11922,-0.76861 -0.0476,-0.39146 -0.0602,-0.78524 -0.0863,-1.17844 -1.52475,0.41551 -0.76955,0.56413 -1.07596,0.0469 -0.0186,-0.0315 0.009,0.0726 0.0143,0.10881 0.0418,0.30277 0.0857,0.60527 0.13334,0.90718 0.18358,1.08589 0.39462,2.16672 0.60557,3.24758 0.0929,0.45215 0.088,0.868 0.85836,0.90066 0.43402,0.0184 0.36011,-0.78081 0.35774,-1.00271 -10e-4,-0.1294 -0.003,-0.25879 -0.004,-0.38818 -0.0105,-0.73067 -0.009,-1.46402 -0.0782,-2.19194 -0.12555,-0.75329 -1.19085,-0.57574 -1.06531,0.17755 z" />
    <path
       style="fill:#f9f9f9;stroke-width:0.264583"
       id="path640"
       d="m 103.2436,135.90801 c -0.39947,0.60827 -0.85463,1.17923 -1.35662,1.70575 -0.40396,0.40126 -0.51311,0.28932 0.56792,0.92604 0.0635,0.0374 0.0939,-0.11367 0.13584,-0.17421 0.0716,-0.10335 0.13622,-0.21132 0.20433,-0.31699 0.39257,-0.69895 0.67021,-1.45372 0.95856,-2.19952 0.0149,-0.0382 0.0809,-0.0954 0.0446,-0.11448 -0.32197,-0.16895 -0.65554,-0.35238 -1.01657,-0.39554 -0.0953,-0.0114 -0.085,0.17205 -0.12544,0.25901 -0.13515,0.29036 -0.24981,0.58696 -0.36025,0.88737 -0.14872,0.39045 -0.24532,0.79257 -0.42691,1.16969 -0.01,0.0161 -0.0191,0.0326 -0.0297,0.0482 -0.007,0.01 -0.0105,0.031 -0.0215,0.0273 -0.0215,-0.007 0.0337,-0.0418 0.0291,-0.048 -0.005,-0.007 -0.0165,0.006 -0.0247,0.009 -0.19849,0.0782 -0.37147,0.20599 -0.53518,0.34032 -0.19583,0.1639 -0.31466,0.39032 -0.41943,0.61831 -0.004,0.009 -0.009,0.0186 -0.0128,0.0279 -0.31918,0.69378 0.66196,1.14517 0.98115,0.4514 v 0 c 0.005,-0.0118 0.0109,-0.0236 0.0163,-0.0354 0.0338,-0.0789 0.0691,-0.16469 0.12382,-0.23046 0.0865,-0.0728 0.16824,-0.14168 0.27371,-0.18023 0.28599,-0.12866 0.4516,-0.27961 0.59387,-0.56243 0.0552,-0.11614 0.0903,-0.18578 0.13902,-0.31048 0.12221,-0.31304 0.20453,-0.64052 0.32751,-0.95334 0.10081,-0.27642 0.10138,-0.28948 0.21708,-0.56049 0.035,-0.082 0.0732,-0.16258 0.10895,-0.24425 0.019,-0.0435 0.0917,-0.10065 0.0554,-0.13119 -0.27289,-0.22941 -0.57918,-0.42213 -0.89956,-0.5785 -0.0377,-0.0184 -0.0304,0.0781 -0.0457,0.11717 -0.26281,0.67978 -0.51512,1.36751 -0.86275,2.00974 -0.0483,0.0776 -0.0934,0.15736 -0.14506,0.23285 -0.0362,0.0529 -0.15056,0.0967 -0.11792,0.1518 0.63042,1.06477 0.55562,0.98909 1.04918,0.50385 0.55792,-0.58841 1.06731,-1.22353 1.50674,-1.90568 0.38479,-0.65965 -0.54809,-1.20383 -0.93288,-0.54418 z" />
    <path
       style="fill:#f9f9f9;stroke-width:0.264583"
       id="path642"
       d="m 97.729336,132.32144 c -0.623249,0.003 -1.246591,-0.006 -1.869755,0.006 -0.626109,0.0276 -0.667622,0.0477 -0.08301,1.10162 0.04646,0.0837 0.191504,0.005 0.287269,0.006 0.411319,0.007 0.351369,0.005 0.781162,0.002 0.609833,0.007 1.218158,-0.0475 1.827459,-0.058 0.146925,0.0993 -0.321376,-0.10437 -0.378764,-0.24295 -0.206947,-0.49973 0.27696,-0.70766 -0.105587,-0.53654 -0.0696,0.0311 -0.139109,0.0624 -0.208664,0.0937 -0.20019,0.0867 -0.397068,0.18074 -0.595568,0.27114 -0.03891,0.0177 -0.07849,0.0339 -0.117529,0.0514 -0.02761,0.0123 -0.06239,0.0153 -0.0824,0.0379 -0.0176,0.0199 0.04958,-0.0192 0.07437,-0.0288 -0.744059,0.17197 -0.50085,1.22423 0.243209,1.05226 v 0 c 0.319037,-0.10125 0.61049,-0.2729 0.920228,-0.39859 0.03407,-0.0153 0.386781,-0.17266 0.422059,-0.19241 0.08779,-0.0492 0.210842,-0.0719 0.254331,-0.16262 0.101418,-0.21162 0.21433,-0.46069 0.152938,-0.68718 -0.0861,-0.31764 -0.374745,-0.31537 -0.598561,-0.33706 -0.604765,0.0118 -1.20855,0.0625 -1.813812,0.0578 -0.427861,0.003 -0.340545,0.004 -0.752581,-0.002 -0.08665,-0.001 -0.239027,-0.0893 -0.259935,-0.005 -0.08385,0.33731 0.04464,0.69778 0.002,1.04273 -0.0055,0.0448 -0.177041,0.01 -0.133552,0.0216 0.05974,0.0164 0.123801,-0.005 0.185701,-0.007 0.616231,-0.0121 1.232672,-0.002 1.84899,-0.005 0.763676,0 0.763676,-1.08 0,-1.08 z" />
    <path
       style="fill:#f9f9f9;stroke-width:0.264583"
       id="path644"
       d="m 95.326251,123.82762 c -0.04087,-0.009 -0.08151,-0.02 -0.122616,-0.0284 -0.151703,-0.031 -0.30485,-0.0505 -0.458283,-0.0702 -0.03195,-0.004 -0.06388,-0.008 -0.09581,-0.0126 -0.0061,-7.9e-4 0.01217,0.002 0.01826,0.002 0.01514,0.35999 -0.07396,0.74001 0.04541,1.07997 0.03766,0.10724 0.226948,0.0129 0.340445,0.0189 0.379799,0.0202 0.762256,0.0269 1.140986,0.0625 -0.03915,-0.35094 -0.05863,-0.70463 -0.11745,-1.05282 -0.0035,-0.0207 -0.04116,-0.01 -0.06215,-0.0102 -0.08863,-0.002 -0.177278,0.003 -0.265922,0.004 -0.301995,0.003 -0.604012,0.004 -0.906021,0.005 -0.553474,0.003 -0.534629,-0.0948 -0.178447,1.08038 0.02247,0.0741 0.154919,6.9e-4 0.232371,-1.2e-4 0.179879,-0.002 0.484347,-0.009 0.66191,-0.0136 0.110167,-0.005 0.220363,-0.009 0.330502,-0.0137 0.07031,-0.003 0.388197,-0.0203 0.480802,-0.0289 0.03985,-0.004 0.120703,0.0237 0.118949,-0.0162 -0.05207,-1.18659 0.15787,-1.0736 -0.496097,-1.08913 -0.792654,-0.0101 -1.585399,-0.011 -2.378108,-0.012 -0.04903,-3e-5 -0.09806,-6e-5 -0.147094,-9e-5 -0.763676,-4.5e-4 -0.764298,1.07956 -6.35e-4,1.08 v 0 c 0.0488,3e-5 0.0976,6e-5 0.1464,9e-5 0.785323,9.5e-4 1.570678,0.002 2.355947,0.0118 0.623029,0.012 0.300051,0.0976 0.356828,-1.05828 5.02e-4,-0.01 -0.01931,0.005 -0.02925,0.006 -0.06379,0.006 -0.127746,0.009 -0.191665,0.0131 -0.08704,0.005 -0.174112,0.0101 -0.261213,0.0143 -0.103374,0.005 -0.206801,0.009 -0.310201,0.0131 -0.148631,0.003 -0.482925,0.0116 -0.637642,0.0133 -0.07748,8.2e-4 -0.2101,-0.0741 -0.232453,1.2e-4 -0.354403,1.1763 -0.372435,1.07902 0.182164,1.07962 0.400989,-10e-4 0.80473,0.009 1.205365,-0.009 0.09704,-0.004 0.269715,0.0727 0.29059,-0.0221 0.07672,-0.34866 -0.03355,-0.71321 -0.05032,-1.06981 -0.391695,-0.0343 -0.785753,-0.0444 -1.178349,-0.0652 -0.110438,-0.006 -0.271764,-0.11157 -0.33127,-0.0183 -0.198466,0.3109 -0.220687,0.70391 -0.33103,1.05587 0.196192,0.0354 0.396958,0.0442 0.590916,0.0928 0.736766,0.20093 1.020933,-0.84101 0.284167,-1.04195 z" />
    <path
       style="fill:#f9f9f9;stroke-width:0.264583"
       id="path646"
       d="m 94.287421,128.43957 c 0.549946,-0.0755 1.10014,-0.1487 1.646783,-0.24591 -0.296641,0.1604 -0.07361,0.0433 -0.46059,-0.87159 -0.0109,-0.0258 0.06356,-0.0366 0.0551,-0.0633 -0.0072,-0.0228 -0.04495,0.0163 -0.06756,0.024 -0.304419,0.10433 -0.0058,-0.002 -0.418262,0.14845 -0.384214,0.13648 -0.774783,0.25388 -1.162054,0.3813 -0.7254,0.23874 -0.387778,1.26461 0.337622,1.02587 v 0 c 0.398485,-0.13117 0.800481,-0.25172 1.195579,-0.39295 0.08135,-0.0298 0.162552,-0.06 0.244064,-0.0894 0.12186,-0.0439 0.312389,-0.10204 0.427075,-0.1717 0.07173,-0.0436 0.218181,-0.069 0.201318,-0.15122 -0.06733,-0.32825 -0.247307,-0.62609 -0.419683,-0.91343 -0.02098,-0.035 -0.08126,0.007 -0.121892,0.0107 -0.530139,0.0945 -1.063859,0.1647 -1.597189,0.23826 -0.757261,0.0988 -0.617575,1.1697 0.139686,1.07093 z" />
    <path
       style="fill:#f9f9f9;stroke-width:0.264583"
       id="path648"
       d="m 99.47557,117.562 c -0.03679,-0.10081 -0.07058,-0.20277 -0.110386,-0.30243 -0.150651,-0.37719 -0.311863,-0.72911 -0.473948,-1.10248 -0.219385,-0.50535 -0.432028,-1.01322 -0.640075,-1.52332 -0.04162,-0.10717 -0.08324,-0.21434 -0.124855,-0.32151 0.01003,0.009 0.03944,0.0175 0.03009,0.0273 -0.19137,0.20054 -0.419666,0.36479 -0.602794,0.57289 -0.01857,0.0211 0.01231,0.0566 0.02893,0.0792 0.06996,0.0955 0.154371,0.1796 0.228367,0.27201 0.09891,0.12353 0.1935,0.25046 0.29025,0.37569 0.254983,0.34552 0.503772,0.6962 0.732666,1.0597 0.04797,0.0762 0.09577,0.15257 0.139111,0.23147 0.01757,0.032 0.0309,0.13485 0.04328,0.10053 0.07618,-0.21121 0.10449,-0.43673 0.156736,-0.65509 0.156889,-0.0314 0.366989,0.0278 0.470669,-0.0941 0.06455,-0.0759 -0.142239,-0.1397 -0.208426,-0.21414 -0.120555,-0.13559 -0.238141,-0.27392 -0.351487,-0.41559 -0.412724,-0.51585 -0.79189,-1.05846 -1.17512,-1.59619 -0.201916,-0.29709 -0.40784,-0.59161 -0.617566,-0.88326 -0.0031,-0.004 -0.131462,-0.1821 -0.144085,-0.17143 -0.275667,0.23307 -0.498141,0.5226 -0.747212,0.7839 0.112273,0.14547 0.248707,0.26926 0.381873,0.39482 0.556885,0.52257 1.29591,-0.26498 0.739025,-0.78755 v 0 c -0.09421,-0.0879 -0.192487,-0.17309 -0.272104,-0.27506 -2.127317,1.77766 -0.472604,0.86051 -0.88543,0.61785 -0.02148,-0.0126 0.03059,0.0394 0.04512,0.0596 0.04222,0.0588 0.08322,0.11848 0.125105,0.17752 0.343772,0.48453 0.07916,0.10488 0.495815,0.71047 0.401171,0.56277 0.79767,1.13155 1.232244,1.66945 0.0032,0.004 0.60677,0.73706 0.722465,0.78465 0.244172,0.10042 0.519262,0.0958 0.778893,0.14377 0.07764,-0.23492 0.19647,-0.46004 0.232916,-0.70475 0.01106,-0.0743 -0.0615,-0.13718 -0.09773,-0.20294 -0.04961,-0.09 -0.104641,-0.17704 -0.159514,-0.26399 -0.244894,-0.38804 -0.510706,-0.7626 -0.783623,-1.13128 -0.150264,-0.19332 -0.46928,-0.62117 -0.654787,-0.79335 -0.118208,-0.10972 -0.227826,-0.31649 -0.386982,-0.29042 -1.064687,0.17444 -0.902498,0.54156 -0.661837,1.14772 0.21166,0.51879 0.427914,1.03533 0.651068,1.5493 0.168644,0.38843 0.293705,0.65862 0.449853,1.04278 0.03123,0.0768 0.05825,0.15531 0.08737,0.23297 0.215483,0.73264 1.251598,0.4279 1.036114,-0.30474 z" />
    <path
       style="fill:#f9f9f9;stroke-width:0.264583"
       id="path690"
       d="m 109.98696,127.46401 c -0.41584,-0.0105 -0.83725,-0.0871 -1.25355,-0.0417 -0.083,0.009 -0.1645,0.0284 -0.24675,0.0426 -0.10989,0.0556 -0.24131,0.0811 -0.32967,0.16687 -0.51187,0.49712 -0.38381,1.16107 -0.12879,1.74342 0.0516,0.11788 0.1185,0.22848 0.17775,0.34272 0.0712,0.0962 0.12778,0.20511 0.2136,0.28849 0.2069,0.20102 0.47274,0.36241 0.78246,0.31062 0.16753,-0.028 0.32402,-0.11903 0.45793,-0.22352 0.21343,-0.16654 0.27001,-0.41453 0.35688,-0.64934 0.086,-0.42843 0.10764,-0.88301 -0.0138,-1.30795 -0.0167,-0.0586 -0.0406,-0.1149 -0.0609,-0.17235 -0.0307,-0.0554 -0.0515,-0.11776 -0.0922,-0.16634 -0.0629,-0.0749 -0.13117,-0.1493 -0.21493,-0.19983 -0.23076,-0.13921 -0.52514,-0.12992 -0.75776,-0.004 -0.0807,0.0437 -0.14476,0.11275 -0.21714,0.16913 -0.0475,0.0639 -0.11214,0.11818 -0.1426,0.19179 -0.0524,0.12667 -0.0893,0.26196 -0.10164,0.39849 -0.032,0.35405 0.16409,0.74037 0.38818,0.9987 0.0802,0.0925 0.17939,0.16654 0.26908,0.24981 0.25741,0.16525 0.59495,0.35698 0.9173,0.33567 0.12826,-0.008 0.27096,-0.0117 0.37593,-0.0859 0.43299,-0.306 0.38688,-0.45149 0.47145,-0.88876 0.0239,-0.31332 -0.0279,-0.61846 -0.0877,-0.92378 -0.15169,-0.74846 -1.21017,-0.53394 -1.05848,0.21452 v 0 c 0.0404,0.18994 0.0769,0.38059 0.0744,0.57602 0.006,0.0305 -0.0123,0.0899 0.0187,0.0913 0.0731,0.003 0.13221,-0.0665 0.20387,-0.0811 0.0299,-0.006 0.0661,0.001 0.089,0.0212 0.0132,0.0117 -0.0341,0.0136 -0.0517,0.0116 -0.0409,-0.005 -0.0808,-0.0173 -0.11967,-0.0308 -0.0423,-0.0148 -0.0821,-0.0359 -0.12312,-0.0539 -0.1091,-0.0813 -0.12484,-0.0824 -0.2096,-0.18501 -0.021,-0.0254 -0.039,-0.0532 -0.0559,-0.0814 -0.0109,-0.0183 -0.007,-0.063 -0.0274,-0.0577 -0.27574,0.071 -0.003,0.0877 -0.0853,0.0813 -0.13029,0.0495 -0.2532,0.0461 -0.3688,-0.0485 -0.0986,-0.0806 -0.0938,-0.0787 -0.10333,-0.14859 0.10952,0.22169 0.0749,0.52954 0.0556,0.76682 -0.033,0.22096 -0.006,0.0776 0.18696,0.12273 0.0479,0.0112 0.0914,0.0429 0.12459,0.0794 0.0394,0.0433 -0.49917,0.16305 -0.14029,-0.10571 -0.14262,-0.25871 -0.11318,-0.18584 -0.22178,-0.46051 -0.0207,-0.0525 -0.0409,-0.10525 -0.0581,-0.15898 -0.01,-0.03 0.007,-0.0805 -0.0222,-0.0917 -0.0516,-0.0197 -0.1093,0.0779 -0.16376,0.0251 0.16452,-0.042 0.3008,-0.035 0.47165,-0.0282 0.24289,0.01 0.48546,0.0281 0.72803,0.0433 0.76081,0.0661 0.85437,-1.00979 0.0936,-1.07594 z" />
    <path
       style="fill:#f9f9f9;stroke-width:0.264583"
       id="path692"
       d="m 108.01089,128.43153 c -0.29615,-0.26599 -0.52787,-0.59364 -0.76214,-0.91262 -0.36687,-0.49952 -0.33416,-0.45709 -0.69968,-0.96726 -0.34211,-0.47124 -0.67522,-0.94945 -1.02334,-1.41632 -0.28133,-0.37727 -0.57683,-0.74395 -0.87052,-1.11158 -0.43383,-0.51635 -0.84035,-1.05447 -1.25836,-1.58342 -0.17516,-0.21713 -0.18422,-0.23172 -0.3554,-0.43215 -0.0315,-0.0369 -0.0534,-0.13285 -0.0959,-0.10944 -0.31429,0.17324 -0.62593,0.37291 -0.86602,0.63966 -0.0494,0.0549 0.083,0.12211 0.1272,0.18122 0.056,0.075 0.1156,0.14724 0.1734,0.22087 0.67457,0.87137 1.38715,1.71247 2.08603,2.56434 0.6321,0.76389 1.19817,1.57751 1.7707,2.38575 0.17599,0.22028 0.0849,0.12026 0.27034,0.30268 0.5604,0.5188 1.2941,-0.27372 0.7337,-0.79252 v 0 c -0.0693,-0.0439 -0.0198,-0.009 -0.12282,-0.13454 -0.58741,-0.82885 -1.16845,-1.66304 -1.81696,-2.44638 -0.69428,-0.84627 -1.40229,-1.68175 -2.07242,-2.54741 -0.0496,-0.0628 -0.0992,-0.12557 -0.14877,-0.18834 -0.0194,-0.0245 -0.0309,-0.0886 -0.0581,-0.0734 -0.31214,0.17391 -0.61703,0.36754 -0.88797,0.60049 -0.0312,0.0269 0.0548,0.0615 0.0816,0.0928 0.16069,0.1878 0.16667,0.19858 0.33413,0.40609 0.41931,0.53031 0.82674,1.07009 1.26185,1.58781 0.28322,0.35448 0.56877,0.70775 0.84004,1.07156 0.34687,0.4652 0.6788,0.94169 1.01969,1.41124 0.3212,0.44825 0.38626,0.54231 0.71029,0.98182 0.27565,0.37389 0.55172,0.75363 0.89965,1.06517 0.56295,0.51603 1.29273,-0.28009 0.72979,-0.79613 z" />
    <path
       style="fill:#f9f9f9;stroke-width:0.264583"
       id="path694"
       d="m 111.14378,128.65653 c 0.60318,-0.54957 1.23558,-1.06606 1.83647,-1.61849 0.16959,-0.15592 0.33548,-0.3158 0.50322,-0.47371 0.7621,-0.75918 1.51291,-1.52995 2.25956,-2.30436 0.36014,-0.36916 0.71679,-0.74284 1.01292,-1.16617 0.14886,-0.21476 0.21269,-0.45582 0.22819,-0.71298 0.0286,-0.19597 0.062,-0.39111 0.0859,-0.58785 0.0461,-0.37753 0.0314,-0.7574 0.004,-1.13554 -0.002,-0.20698 -0.0609,-0.41908 -0.0286,-0.62572 0.0568,-0.18839 0.12702,-0.37201 0.17828,-0.56255 0.0422,-0.1569 0.0584,-0.31818 0.0706,-0.47958 0.0548,-0.76171 -1.02246,-0.83916 -1.07722,-0.0774 v 0 c -0.006,0.0946 -0.0132,0.18935 -0.0376,0.28145 -0.0626,0.24485 -0.17811,0.47457 -0.20837,0.72767 -0.0235,0.27232 -1.5e-4,0.54279 0.0258,0.81441 0.0226,0.30918 0.0381,0.6197 7.2e-4,0.92858 -0.0261,0.22113 -0.0711,0.43945 -0.0922,0.66111 -0.002,0.0595 0.005,0.0969 -0.0358,0.1512 -0.26152,0.37767 -0.587,0.70328 -0.90419,1.03383 -0.73456,0.76195 -1.4735,1.52 -2.2225,2.26772 -0.49118,0.46279 -0.4759,0.45568 -0.98257,0.90379 -0.40556,0.35868 -0.82763,0.70008 -1.22646,1.0663 -0.0722,0.0663 -0.14015,0.13699 -0.21022,0.20548 -0.497,0.57983 0.323,1.28268 0.81999,0.70286 z" />
    <path
       style="fill:#f9f9f9;stroke-width:0.264583"
       id="path696"
       d="m 116.05006,120.55194 c -0.31641,0.43049 -0.55275,0.90993 -0.79943,1.38159 -0.13059,0.2775 -0.0746,0.12872 -0.16196,0.44855 -0.16304,0.74607 0.89206,0.97665 1.0551,0.23058 v 0 c -0.0303,-0.0754 -0.0121,-0.0148 0.0639,-0.17866 0.21969,-0.42016 0.42723,-0.8487 0.70639,-1.23406 0.45821,-0.61094 -0.4058,-1.25894 -0.864,-0.648 z" />
  </g>
</svg>
