<?xml version="1.0" encoding="UTF-8" standalone="no"?>
<!-- Created with Inkscape (http://www.inkscape.org/) -->

<svg
   version="1.1"
   id="svg1028"
   width="40.445972"
   height="26.502645"
   viewBox="0 0 40.445972 26.502645"
   sodipodi:docname="emailicon.svg"
   inkscape:version="1.2.2 (732a01da63, 2022-12-09)"
   xmlns:inkscape="http://www.inkscape.org/namespaces/inkscape"
   xmlns:sodipodi="http://sodipodi.sourceforge.net/DTD/sodipodi-0.dtd"
   xmlns="http://www.w3.org/2000/svg"
   xmlns:svg="http://www.w3.org/2000/svg">
  <defs
     id="defs1032" />
  <sodipodi:namedview
     id="namedview1030"
     pagecolor="#505050"
     bordercolor="#ffffff"
     borderopacity="1"
     inkscape:showpageshadow="0"
     inkscape:pageopacity="0"
     inkscape:pagecheckerboard="1"
     inkscape:deskcolor="#505050"
     showgrid="false"
     inkscape:zoom="22.740554"
     inkscape:cx="25.680993"
     inkscape:cy="5.2109548"
     inkscape:window-width="2400"
     inkscape:window-height="1261"
     inkscape:window-x="2391"
     inkscape:window-y="-9"
     inkscape:window-maximized="1"
     inkscape:current-layer="layer2" />
  <g
     inkscape:groupmode="layer"
     id="layer2"
     inkscape:label="Image 1"
     transform="translate(-29.949974,-40.417832)">
    <g
       id="g1574"
       transform="matrix(0.43046721,0,0,0.43046721,28.575146,30.566343)">
      <rect
         style="fill:#9ed1d7"
         id="rect1208"
         width="93.781097"
         height="61.567165"
         x="3.2338309"
         y="22.885572" />
      <path
         style="fill:#ffffff"
         id="path1559"
         d="m 3.2532995,23.352248 c 0.7124163,0.690558 1.4016767,1.403835 2.0752308,2.132164 1.3033936,1.370379 2.5170572,2.817157 3.7043999,4.287765 0.7998391,0.974101 1.5441558,1.988655 2.2604908,3.024826 0.607759,0.916755 1.26,1.798161 1.944399,2.658977 1.343038,1.723291 2.800186,3.352415 4.270408,4.966953 1.562907,1.742646 3.149258,3.464403 4.746464,5.17566 1.027303,1.069665 2.039541,2.153892 3.133459,3.15642 0.637532,0.592165 1.371733,1.065603 2.09478,1.544595 0.944314,0.631717 1.898309,1.247694 2.856421,1.858161 0.996502,0.638533 1.975529,1.304598 3.000157,1.897711 1.051643,0.59842 2.089539,1.222092 3.154674,1.796333 0.758702,0.400996 1.525024,0.798787 2.349397,1.046491 0.47575,0.106103 0.951825,0.208702 1.430078,0.30328 0.585001,0.131308 1.171383,0.239672 1.745945,0.414021 0.484809,0.16831 0.988661,0.281904 1.465064,0.473025 0.756665,0.34334 1.487667,0.741025 2.213159,1.14533 1.055,0.548764 2.062086,1.182647 3.120039,1.725181 0.485384,0.227836 0.98616,0.416397 1.491844,0.592798 0.201896,0.07035 0.301388,-0.215173 0.09949,-0.285524 v 0 c -0.492643,-0.17147 -0.980262,-0.355351 -1.453408,-0.576344 -1.055009,-0.540585 -2.05864,-1.173585 -3.110795,-1.720238 -0.73689,-0.410535 -1.479303,-0.814625 -2.248402,-1.162085 -0.48532,-0.192224 -0.995475,-0.312795 -1.48934,-0.481522 -0.58426,-0.176664 -1.180087,-0.288411 -1.774946,-0.421261 -0.46881,-0.09269 -0.935365,-0.193614 -1.401991,-0.296315 -0.805153,-0.240232 -1.551475,-0.633468 -2.292675,-1.022998 -1.062563,-0.572587 -2.097606,-1.195147 -3.1467,-1.791879 -1.021083,-0.59063 -1.995972,-1.255244 -2.989118,-1.891004 -0.956605,-0.609499 -1.909103,-1.224492 -2.851916,-1.855234 -0.709897,-0.470224 -1.431359,-0.93433 -2.057497,-1.515457 -1.088349,-0.99695 -2.094497,-2.076152 -3.11668,-3.139795 -1.596365,-1.710347 -3.181872,-3.431199 -4.743946,-5.172929 -1.465706,-1.609532 -2.918445,-3.233553 -4.2573,-4.951553 C 12.794206,34.412304 12.146037,33.536308 11.542135,32.62506 10.821538,31.582726 10.072693,30.562191 9.2681855,29.582235 8.0765864,28.106368 6.8584484,26.6545 5.5505106,25.279113 4.8696997,24.543031 4.1732119,23.821872 3.4524064,23.124697 3.2915037,22.983907 3.0923968,23.211458 3.2532995,23.352248 Z" />
      <path
         style="fill:#ffffff"
         id="path1561"
         d="m 50.996181,61.421258 c 1.370279,-1.093533 2.92061,-1.934774 4.440397,-2.798193 1.639076,-0.883338 3.212285,-1.870266 4.67956,-3.016305 1.0591,-0.894288 2.149825,-1.750856 3.243298,-2.602533 1.263822,-0.999931 2.588046,-1.929442 3.795729,-2.999204 0.202867,-0.179699 0.395109,-0.371046 0.592664,-0.556569 0.723391,-0.699892 1.21278,-1.582125 1.75435,-2.418415 0.23832,-0.368012 0.67073,-0.999885 0.920634,-1.367481 0.74345,-1.062172 1.531939,-2.091776 2.395492,-3.058946 0.691774,-0.731993 1.436136,-1.411242 2.19712,-2.070016 1.209655,-1.023003 2.566796,-1.850777 3.899869,-2.699477 0.838787,-0.526659 1.687928,-1.046902 2.440065,-1.695905 0.280265,-0.241835 0.428186,-0.400996 0.684225,-0.659938 0.611935,-0.659548 1.232638,-1.313881 1.934706,-1.878368 0.128892,-0.0912 0.255234,-0.186118 0.386677,-0.273603 0.132469,-0.08817 0.271315,-0.166426 0.404739,-0.253143 0.509359,-0.331051 0.999324,-0.691143 1.493286,-1.044345 0.80924,-0.521207 1.493654,-1.189745 2.161405,-1.875661 0.514898,-0.55106 1.001227,-1.127402 1.493931,-1.698035 0.326736,-0.409878 0.635847,-0.832374 0.987033,-1.221892 0.420465,-0.481195 0.963129,-0.803736 1.505097,-1.128238 0.479972,-0.303322 0.99987,-0.534128 1.453556,-0.877431 0.36342,-0.328161 0.698658,-0.690605 1.087696,-0.989162 0.191076,-0.189239 0.400433,-0.273687 0.660176,-0.312581 0.278072,-0.01614 0.539285,-0.01088 0.787173,-0.151459 0.130835,-0.147559 0.245882,-0.268323 0.437542,-0.322878 0.112712,-0.02098 0.06019,-0.01882 0.157179,-0.01288 0.213784,0.0028 0.217743,-0.299536 0.004,-0.302336 v 0 c -0.169102,0.002 -0.08617,-0.0069 -0.248875,0.02587 -0.207843,0.06561 -0.381791,0.170298 -0.507002,0.353944 -0.19652,0.137097 -0.451395,0.07073 -0.676039,0.110913 -0.307127,0.04846 -0.571302,0.151463 -0.79873,0.371957 -0.38723,0.299778 -0.727054,0.655691 -1.085998,0.987863 -0.44329,0.338312 -0.957895,0.557817 -1.425993,0.858789 -0.567563,0.340007 -1.134034,0.681515 -1.574388,1.185257 -0.352309,0.391372 -0.664364,0.814185 -0.991249,1.226674 -0.488741,0.566107 -0.971253,1.137783 -1.481729,1.684727 -0.655204,0.67315 -1.325845,1.329903 -2.120612,1.840611 -0.488923,0.349601 -0.973787,0.706255 -1.477884,1.034032 -0.138217,0.08987 -0.281928,0.171189 -0.419069,0.262694 -0.136516,0.09109 -0.267712,0.189906 -0.401568,0.284859 -0.709908,0.572954 -1.341502,1.232101 -1.960095,1.901308 -0.243766,0.246866 -0.393549,0.407709 -0.659734,0.637724 -0.742918,0.641968 -1.583169,1.154707 -2.411863,1.675582 -1.345538,0.856636 -2.714935,1.692743 -3.935396,2.725943 -0.770696,0.667326 -1.524608,1.355363 -2.224776,2.097255 -0.872166,0.977272 -1.669219,2.017026 -2.419978,3.090308 -0.255807,0.376291 -0.682786,1.000124 -0.926673,1.376723 -0.527544,0.814611 -1.002406,1.675482 -1.705309,2.358816 -0.193313,0.181757 -0.381333,0.369314 -0.579941,0.54527 -1.204858,1.067442 -2.526334,1.994533 -3.787202,2.992311 -1.093555,0.85181 -2.18453,1.708317 -3.243651,2.602808 -1.455337,1.137353 -3.016828,2.115181 -4.642766,2.991673 -1.538641,0.87416 -3.108257,1.726218 -4.493308,2.836346 -0.158918,0.143026 0.04335,0.36777 0.20227,0.224744 z" />
      <path
         style="fill:#ffffff"
         id="path1565"
         d="m 36.60619,56.435983 c -1.808355,1.146272 -3.756198,2.052763 -5.676182,2.992797 -1.715701,0.843602 -3.455519,1.638944 -5.239451,2.328053 -0.597456,0.23079 -1.200545,0.446731 -1.800224,0.671682 -1.025744,0.374527 -2.01058,0.87765 -2.830435,1.604983 -0.605913,0.583389 -1.139009,1.232699 -1.658798,1.892046 -0.685278,0.803768 -1.277995,1.680248 -1.921825,2.516607 -0.736533,0.950305 -1.401695,1.95619 -2.183111,2.870823 -0.783835,0.909246 -1.663716,1.726149 -2.552725,2.530149 -1.004564,0.915949 -1.976779,1.866139 -2.900641,2.863426 C 9.3801988,77.239206 8.9510307,77.798396 8.501242,78.341724 8.1513427,78.780157 7.8560649,79.25772 7.5251197,79.710054 7.329209,80.003223 7.0737114,80.250589 6.87638,80.541658 6.7081088,80.72537 6.5730841,80.931885 6.4362242,81.139832 6.297234,81.396905 6.0979773,81.609533 5.8684303,81.787506 c -0.2785674,0.278444 -0.5932644,0.51441 -0.8756739,0.78859 -0.2246259,0.230081 -0.4464518,0.462763 -0.6884232,0.674782 -0.2038433,0.199568 -0.4208686,0.375868 -0.6522099,0.541931 -0.1592055,0.137284 -0.085192,0.06412 -0.2224919,0.219046 -0.1402708,0.161355 0.08792,0.359728 0.2281909,0.198372 v 0 c 0.1005509,-0.118774 0.044325,-0.06086 0.1706543,-0.171812 0.2394035,-0.17195 0.4642207,-0.354723 0.6755409,-0.560493 0.2449697,-0.216161 0.4722349,-0.450401 0.699463,-0.684989 0.2744112,-0.266952 0.5818564,-0.495011 0.8513436,-0.767351 0.2533559,-0.199976 0.4785637,-0.433975 0.6340488,-0.719643 0.1362805,-0.207485 0.2709783,-0.412098 0.4385493,-0.595756 0.1918769,-0.289355 0.4517585,-0.529577 0.6417498,-0.821631 0.3272434,-0.447573 0.6200104,-0.919466 0.9649862,-1.354025 0.4461764,-0.539046 0.8722702,-1.093491 1.3304678,-1.622514 0.917653,-0.990892 1.883776,-1.934573 2.88163,-2.84464 0.898616,-0.812765 1.787723,-1.638874 2.579901,-2.558119 0.783781,-0.919374 1.454288,-1.927339 2.192731,-2.882688 0.642951,-0.835567 1.235304,-1.71085 1.919672,-2.513843 0.508772,-0.645507 1.030194,-1.281334 1.622389,-1.85339 0.789329,-0.705371 1.746832,-1.184217 2.73558,-1.547719 0.601657,-0.225693 1.206724,-0.442374 1.806134,-0.673969 1.790975,-0.691982 3.537775,-1.490353 5.260304,-2.337305 1.936889,-0.948337 3.902609,-1.862328 5.72464,-3.022467 0.171042,-0.128281 -0.01038,-0.370171 -0.181417,-0.24189 z" />
      <path
         style="fill:#ffffff"
         id="path1567"
         d="m 60.192237,55.610652 c 0.62607,0.927267 1.367318,1.759074 2.1496,2.555077 0.681485,0.64158 1.340053,1.30869 2.043492,1.926776 0.272001,0.238997 0.966829,0.81208 1.243735,1.041808 1.381065,1.15756 2.903505,2.123495 4.410123,3.105265 1.559659,1.003007 3.111065,2.018087 4.653877,3.046854 1.340298,0.901368 2.733715,1.726546 4.021754,2.703173 1.098345,0.898679 2.094418,1.9131 3.128243,2.883535 0.175925,0.164884 0.353358,0.328173 0.527774,0.494651 0.400419,0.382194 0.67352,0.667482 1.087548,1.038572 0.581605,0.521289 1.204964,0.989212 1.826269,1.461176 1.06688,0.795496 2.178588,1.528603 3.210151,2.370352 0.648863,0.549138 1.306162,1.086133 1.996179,1.582849 0.756843,0.520026 1.57223,0.945848 2.349797,1.431792 0.636497,0.366187 1.234779,0.792939 1.839068,1.208694 0.386821,0.260473 0.816773,0.469593 1.131556,0.820654 0.175773,0.243305 0.387547,0.455396 0.584548,0.680394 0.110223,0.131298 0.214321,0.268155 0.314571,0.407315 0.125245,0.173277 0.370296,-0.0038 0.245051,-0.177124 v 0 c -0.106258,-0.146575 -0.215604,-0.291491 -0.332444,-0.429723 -0.19889,-0.225815 -0.410368,-0.44032 -0.588128,-0.684397 -0.335623,-0.364258 -0.771049,-0.599748 -1.183779,-0.866224 -0.608007,-0.418255 -1.210003,-0.84752 -1.850311,-1.216066 -0.772403,-0.481803 -1.580949,-0.905971 -2.333316,-1.420735 -0.685221,-0.492951 -1.337293,-1.026732 -1.981666,-1.571724 -1.034523,-0.843669 -2.148118,-1.580013 -3.218386,-2.376834 -0.612892,-0.465512 -1.228414,-0.92666 -1.802175,-1.440808 -0.409524,-0.366974 -0.691105,-0.660169 -1.087766,-1.038777 -0.174361,-0.166425 -0.351738,-0.329662 -0.527607,-0.494493 -1.041577,-0.977663 -2.044925,-1.99991 -3.152562,-2.904066 -1.293461,-0.979585 -2.69053,-1.810001 -4.036623,-2.71375 -1.543702,-1.029353 -3.095996,-2.045025 -4.656547,-3.048614 -1.496905,-0.97544 -3.009888,-1.934653 -4.382143,-3.084648 -0.264544,-0.219464 -0.971009,-0.80229 -1.232664,-1.032159 -0.699487,-0.614514 -1.354227,-1.277908 -2.031988,-1.915677 -0.769118,-0.782277 -1.498057,-1.599457 -2.113651,-2.510838 -0.118596,-0.177895 -0.370176,-0.01017 -0.25158,0.16772 z" />
    </g>
    <path
       id="path735"
       style="fill:#f9f9f9"
       d="M 30.862083 41.267441 C 30.747477 41.244524 30.624753 41.369747 30.70974 41.505723 C 30.985082 41.976589 31.30521 42.419424 31.61599 42.867051 C 31.76066 43.041376 31.868085 43.245067 32.02224 43.411973 C 32.04869 43.440613 32.07377 43.476038 32.11013 43.490098 C 32.1637 43.510818 32.238715 43.551462 32.280052 43.511582 C 32.282854 43.50888 32.28337 43.50468 32.285911 43.501816 L 32.287865 43.501816 C 32.404987 43.710021 32.52299 43.917883 32.631615 44.130723 C 32.808169 44.475675 32.977167 44.824543 33.149193 45.171738 C 33.304093 45.485696 33.489113 45.783997 33.696068 46.066269 C 33.931083 46.353342 34.1792 46.628656 34.45388 46.878769 C 34.767027 47.169606 35.070203 47.472608 35.371849 47.775254 C 35.578901 48.008428 35.767475 48.256397 35.926536 48.525254 C 36.094052 48.792776 36.253282 49.067327 36.477318 49.292832 C 36.781513 49.609821 37.112949 49.908101 37.483177 50.146348 C 37.900724 50.383925 38.333565 50.589951 38.748802 50.831894 C 38.763409 50.840273 38.775343 50.850815 38.789818 50.859238 C 38.813112 50.877609 38.836848 50.89554 38.86013 50.913926 C 39.004424 51.047092 39.15145 51.176938 39.293724 51.312363 C 39.549759 51.552117 39.798512 51.800136 40.055443 52.038926 C 40.085913 52.067136 40.115297 52.09419 40.145286 52.12291 C 40.156002 52.133174 40.167843 52.14196 40.17849 52.152207 C 40.231885 52.219883 40.284523 52.288226 40.338646 52.355332 C 40.589558 52.677823 40.849905 52.996397 41.137474 53.286973 C 41.412556 53.539259 41.710126 53.761158 42.032005 53.951035 C 42.473047 54.211226 42.931746 54.440505 43.39138 54.665879 C 43.751187 54.84341 44.117111 55.003474 44.492943 55.144394 C 44.494291 55.144924 44.495501 55.145818 44.496849 55.146348 C 44.579347 55.195289 44.660219 55.24752 44.791771 55.322129 C 45.005817 55.433801 45.226196 55.53705 45.45974 55.601426 C 45.650218 55.653928 45.846457 55.684434 46.041771 55.712754 C 46.206244 55.770149 46.371287 55.824383 46.533958 55.886582 C 46.656872 55.929652 46.77214 55.971613 46.89724 56.007676 C 47.110604 56.069186 47.329503 56.111464 47.543724 56.169785 C 47.841191 56.256735 48.133564 56.359067 48.414818 56.490098 C 48.708191 56.616158 49.004376 56.734735 49.301536 56.851426 C 49.454784 56.910726 49.611917 56.965563 49.77224 57.001816 C 49.821105 57.025389 49.869791 57.048679 49.918724 57.072129 C 50.050291 57.132969 50.171333 57.210341 50.289818 57.292832 C 50.403868 57.368052 50.53385 57.446664 50.674583 57.390488 C 50.708223 57.377058 50.73565 57.351084 50.76638 57.331894 C 50.971019 57.204993 51.162613 57.062392 51.338646 56.898301 C 51.533348 56.705119 51.733179 56.516664 51.946068 56.343613 C 52.198286 56.147578 52.49696 56.028497 52.793724 55.917832 C 53.023698 55.833532 53.25157 55.741983 53.475365 55.642441 C 53.668524 55.558461 53.86705 55.486979 54.065208 55.415879 C 54.273237 55.331929 54.477404 55.241946 54.662865 55.115098 C 54.962478 54.894782 55.261023 54.674466 55.54763 54.437363 C 55.800146 54.215485 56.053505 53.993001 56.283958 53.74791 C 56.423052 53.603655 56.541878 53.44398 56.655052 53.27916 C 56.743432 53.132134 56.839977 52.990055 56.932396 52.845566 C 57.044052 52.675875 57.18038 52.526216 57.323021 52.382676 C 57.522076 52.166321 57.707105 51.939344 57.889427 51.708848 C 58.06388 51.483843 58.237344 51.255753 58.414818 51.033066 C 58.543698 50.861347 58.700298 50.716707 58.852318 50.566269 C 59.023509 50.405387 59.189272 50.239275 59.352318 50.070176 C 59.507656 49.9116 59.656069 49.746197 59.807396 49.583848 C 59.967225 49.406962 60.133 49.236581 60.295677 49.062363 C 60.50332 48.830753 60.749974 48.638332 60.99099 48.443223 C 61.336879 48.186256 61.665491 47.906515 61.992943 47.626816 C 62.245406 47.423163 62.466224 47.184593 62.705833 46.96666 C 62.907672 46.786174 63.122994 46.62051 63.330833 46.447129 C 63.520836 46.280575 63.723581 46.130996 63.918724 45.970566 C 64.218161 45.727091 64.533459 45.503976 64.86013 45.298691 C 65.145338 45.116464 65.396371 44.890065 65.639427 44.656113 C 65.800664 44.50663 65.968759 44.362759 66.117943 44.201035 C 66.287581 44.008302 66.448073 43.80755 66.606224 43.605332 C 66.709836 43.47545 66.816103 43.348399 66.924583 43.222519 C 67.259224 42.932423 67.58919 42.63616 67.889427 42.31041 C 67.935047 42.26137 67.98187 42.21418 68.026146 42.163926 C 68.058726 42.126946 68.135866 42.097268 68.119896 42.050644 C 68.118622 42.046925 68.117246 42.046456 68.11599 42.042832 C 68.155997 42.000356 68.160681 41.970673 68.074974 41.941269 C 67.989409 41.739091 67.944828 41.786961 67.862083 41.870957 C 67.794913 41.939137 67.812907 41.920529 67.746849 41.988144 C 67.656209 42.082074 67.566439 42.177842 67.475365 42.271348 C 67.363954 42.37947 67.24022 42.475226 67.125755 42.579941 C 66.99152 42.703642 66.864587 42.834523 66.742943 42.970566 C 66.731737 42.983534 66.720934 42.99665 66.70974 43.009629 C 66.511851 43.180857 66.313035 43.352086 66.114036 43.521348 C 65.292936 44.215494 64.452471 44.887124 63.594505 45.535019 C 62.789762 46.149376 61.973226 46.747264 61.155052 47.343613 C 60.554618 47.786622 59.941357 48.2136 59.358177 48.679551 C 59.035798 48.937125 59.012045 48.963272 58.713646 49.224473 C 58.310667 49.584898 57.932727 49.972987 57.58474 50.386582 C 57.30647 50.733225 57.026914 51.080468 56.764427 51.439316 C 56.534114 51.748344 56.309484 52.066364 56.133568 52.410019 C 56.020931 52.663182 55.92292 52.922429 55.824974 53.181504 C 55.768654 53.338046 55.715887 53.500822 55.61013 53.632676 C 55.57658 53.674506 55.52461 53.71855 55.48513 53.753769 C 55.321383 53.891952 55.132598 53.990519 54.944115 54.089707 C 54.69752 54.209789 54.464038 54.357134 54.239036 54.513535 C 53.993644 54.692998 53.758211 54.885288 53.502708 55.050644 C 53.274832 55.183793 53.045354 55.311391 52.807396 55.425644 C 52.589713 55.534841 52.362158 55.625695 52.143333 55.732285 C 51.966795 55.825365 51.791233 55.917744 51.633568 56.040879 C 51.510116 56.131039 51.400426 56.236659 51.295677 56.347519 C 51.244417 56.397689 51.198651 56.460383 51.137474 56.499863 C 51.055664 56.552663 50.947151 56.577329 50.856224 56.607285 C 50.766528 56.633908 50.674628 56.64935 50.582786 56.667832 C 50.578769 56.592348 50.521569 56.519572 50.414818 56.525254 C 50.301072 56.542144 50.193389 56.476981 50.08474 56.454941 C 49.735296 56.351956 49.38275 56.262849 49.039818 56.138535 C 48.696615 56.031687 48.353185 55.922374 48.008568 55.820176 C 47.615448 55.693736 47.22148 55.571147 46.832786 55.431504 C 46.279593 55.246532 45.725081 55.053945 45.215599 54.765488 C 44.88693 54.591328 44.565579 54.404589 44.256615 54.197129 C 43.98457 54.02408 43.712206 53.853123 43.426536 53.702988 C 43.127046 53.531535 42.823605 53.363029 42.530052 53.181504 C 42.110743 52.922213 41.708523 52.639062 41.301536 52.361191 C 40.826748 52.030861 40.358474 51.689359 39.899193 51.337754 C 39.896408 51.334649 39.894172 51.331087 39.89138 51.327988 C 39.709997 51.13994 39.514972 50.962956 39.299583 50.814316 C 39.179544 50.731477 39.098681 50.688622 39.000755 50.632676 C 38.90379 50.543912 38.810767 50.451611 38.711693 50.365098 C 38.400248 50.073026 38.088344 49.781243 37.758568 49.509629 C 37.4035 49.218825 37.048779 48.927434 36.692161 48.638535 C 36.597415 48.556877 36.504485 48.473602 36.412865 48.388535 C 36.171636 48.074924 35.931049 47.761592 35.67849 47.456894 C 35.587715 47.315336 35.500201 47.172285 35.414818 47.027207 C 35.25569 46.781444 35.102538 46.529162 34.901146 46.314316 C 34.731189 46.134956 34.541204 45.978313 34.36599 45.804551 C 34.24577 45.651556 34.128987 45.496008 34.010521 45.34166 C 33.932742 45.229357 33.856405 45.115075 33.780052 45.001816 C 33.557719 44.679008 33.334483 44.356511 33.11599 44.031113 L 33.117943 44.02916 C 33.116138 44.0252 33.110429 44.020008 33.106224 44.015488 C 33.098881 44.004544 33.092075 43.993234 33.08474 43.982285 C 33.075483 43.910638 33.012622 43.834494 32.95388 43.726426 C 32.633125 43.206321 32.306403 42.692475 31.977318 42.177598 C 31.975616 42.180812 31.975042 42.180747 31.973412 42.183457 C 31.956135 42.145807 31.935636 42.113801 31.899193 42.097519 C 31.898046 42.097007 31.89644 42.098009 31.895287 42.097519 C 31.877279 42.01761 31.861411 41.928381 31.826927 41.954941 C 31.789397 41.983845 31.753253 42.01958 31.719505 42.056504 C 31.675291 41.989632 31.631705 41.922357 31.58474 41.857285 C 31.57674 41.846185 31.512339 41.754019 31.496849 41.740098 C 31.473939 41.719498 31.445827 41.705163 31.420677 41.687363 C 31.389233 41.754463 31.34214 41.817853 31.309349 41.884629 C 31.191332 41.707285 31.073181 41.529635 30.965599 41.345566 C 30.93727 41.30024 30.900285 41.275081 30.862083 41.267441 z M 33.479271 45.144394 C 33.578237 45.27674 33.679392 45.407884 33.780052 45.538926 C 33.888315 45.693712 34.000204 45.846855 34.123802 45.990098 C 34.127003 45.993425 34.130352 45.996552 34.133568 45.999863 C 34.297424 46.208314 34.460155 46.417768 34.625755 46.624863 C 34.374831 46.392615 34.146755 46.13927 33.930443 45.874863 C 33.763025 45.643202 33.611618 45.39801 33.479271 45.144394 z M 62.592552 46.665879 C 62.562431 46.691818 62.530345 46.715488 62.500755 46.742051 C 62.263691 46.958064 62.045237 47.194239 61.795677 47.396348 C 61.470243 47.674332 61.145318 47.951529 60.801536 48.206894 C 60.549626 48.410881 60.292033 48.613238 60.074974 48.855332 C 59.91232 49.029676 59.746556 49.201811 59.586693 49.378769 C 59.436568 49.539901 59.289631 49.703814 59.135521 49.861191 C 58.974106 50.028607 58.808925 50.192162 58.639427 50.351426 C 58.47906 50.510245 58.314749 50.664578 58.17849 50.845566 C 58.000825 51.068576 57.827784 51.296054 57.653099 51.521348 C 57.477872 51.742979 57.29882 51.961145 57.108177 52.169785 C 56.950543 52.328634 56.80168 52.493741 56.67849 52.681504 C 56.58783 52.823255 56.493414 52.962869 56.407005 53.107285 C 56.30266 53.259567 56.191886 53.407832 56.063255 53.540879 C 56.025748 53.580943 55.984817 53.6173 55.946068 53.656113 C 56.010454 53.538408 56.063961 53.413117 56.108177 53.286973 C 56.202117 53.038097 56.296271 52.79045 56.403099 52.546738 C 56.569398 52.216529 56.789839 51.915904 57.008568 51.619004 C 57.266755 51.265487 57.543476 50.923436 57.817161 50.581894 C 58.154879 50.179754 58.521701 49.803486 58.912865 49.452988 C 59.205403 49.196714 59.228736 49.171168 59.545677 48.917832 C 60.126181 48.453825 60.737062 48.02893 61.33474 47.587754 C 61.755028 47.281401 62.174525 46.975403 62.592552 46.665879 z M 41.168724 52.874863 C 41.759295 53.262309 42.346611 53.657117 42.92263 54.066269 C 42.967253 54.097159 43.011061 54.128759 43.055443 54.160019 C 42.761633 54.011305 42.47 53.8588 42.186302 53.691269 C 41.883075 53.51174 41.599416 53.302978 41.340599 53.064316 C 41.280858 53.003401 41.226203 52.937981 41.168724 52.874863 z M 43.403099 54.036973 C 43.638432 54.167231 43.867576 54.308638 44.094505 54.452988 C 44.410124 54.664831 44.737381 54.855057 45.073021 55.033066 C 45.11053 55.054273 45.150297 55.071419 45.188255 55.09166 C 44.998831 55.019773 44.810468 54.945186 44.621849 54.870957 C 44.565907 54.837234 44.512667 54.810837 44.42849 54.755723 C 44.079413 54.527169 43.742569 54.279727 43.403099 54.036973 z M 55.32888 54.222519 C 55.056551 54.44664 54.772867 54.655799 54.489036 54.865098 C 54.327262 54.97957 54.143393 55.055571 53.961693 55.132676 C 53.924942 55.145863 53.889058 55.160458 53.852318 55.173691 C 54.041206 55.039628 54.226234 54.899354 54.412865 54.761582 C 54.627183 54.611748 54.849456 54.471848 55.08474 54.357285 C 55.167159 54.313888 55.248237 54.269023 55.32888 54.222519 z M 43.434349 55.191269 C 43.395447 55.193361 43.355592 55.211013 43.321068 55.251816 C 43.155592 55.40049 42.983435 55.554537 42.780052 55.650254 C 42.64917 55.711854 42.440728 55.773156 42.307396 55.816269 C 41.784739 55.966376 41.262921 56.121232 40.746849 56.292832 C 40.47478 56.383462 40.205316 56.486086 39.957786 56.632676 C 39.888457 56.673736 39.793819 56.738468 39.725365 56.785019 C 39.537195 56.910456 39.397119 57.089945 39.227318 57.236191 C 39.041752 57.374255 38.83405 57.475219 38.639427 57.599473 C 38.403179 57.739917 38.152464 57.855938 37.912865 57.990098 C 37.690655 58.118734 37.488446 58.277648 37.282005 58.429551 C 37.13943 58.531365 37.010133 58.647532 36.885521 58.769394 C 36.722844 58.863417 36.55906 58.95715 36.39724 59.052598 C 36.047901 59.25865 35.751293 59.445953 35.407005 59.660019 C 35.006166 59.916767 34.601241 60.164901 34.198021 60.417832 C 33.991132 60.547608 33.853669 60.631965 33.662865 60.77916 C 33.596265 60.83054 33.533967 60.887231 33.469505 60.941269 C 33.228736 61.18531 33.064109 61.45221 33.01638 61.792832 C 33.01768 61.832422 33.013774 61.940108 33.043724 61.976426 C 33.082714 62.023766 33.131525 62.068349 33.188255 62.09166 C 33.357159 62.16106 33.715587 61.989091 33.858177 61.931504 C 33.978055 61.874471 34.093717 61.811733 34.207786 61.745957 C 34.147446 61.815134 34.086072 61.883432 34.026146 61.952988 C 33.765913 62.236627 33.535141 62.545194 33.319115 62.863144 C 33.176891 63.070649 33.075017 63.301811 32.949974 63.519394 C 32.857564 63.687777 32.742544 63.839828 32.623802 63.990098 C 32.457015 64.195374 32.284894 64.394961 32.129661 64.609238 C 32.01481 64.767571 31.911182 64.93384 31.807396 65.099473 C 31.698709 65.271652 31.591159 65.444768 31.489037 65.620957 C 31.444219 65.699777 31.404498 65.751102 31.352318 65.794785 C 31.302039 65.824732 31.251038 65.854108 31.199974 65.882676 C 31.040617 65.942302 30.880968 65.99765 30.723412 66.062363 C 30.674102 66.083503 30.408288 66.195234 30.436302 66.283066 C 30.512822 66.522983 30.548408 66.482619 30.694115 66.452988 C 30.911786 66.374284 31.120865 66.271973 31.323021 66.16002 C 31.337993 66.154235 31.353021 66.148366 31.367943 66.142441 C 31.428167 66.113016 31.477991 66.080272 31.524193 66.044785 C 31.612447 65.991952 31.69946 65.937995 31.785912 65.882676 C 32.439917 65.453957 33.036981 64.946959 33.617943 64.425645 C 34.462143 63.64257 35.244527 62.795451 36.024193 61.949082 C 36.447877 61.486202 36.860678 61.014689 37.231224 60.507676 C 37.377864 60.307029 37.451126 60.191008 37.58474 59.988144 C 37.804205 59.646758 37.971507 59.275848 38.145286 58.910019 C 38.219976 58.778313 38.243179 58.627232 38.29763 58.488144 C 38.31058 58.455075 38.333798 58.419868 38.352318 58.390488 C 38.402368 58.325198 38.40354 58.322975 38.45974 58.257676 C 38.486781 58.226255 38.52033 58.194023 38.54763 58.161973 C 38.706593 58.032665 38.86787 57.906965 39.039818 57.794785 C 39.195331 57.693326 39.298738 57.641205 39.461693 57.552598 C 39.97606 57.285543 40.527685 57.105993 41.08474 56.952988 C 41.4938 56.847917 41.900878 56.725349 42.301536 56.59166 C 42.515043 56.53472 42.658722 56.430006 42.830833 56.300644 C 42.931517 56.238475 42.996457 56.127387 43.100365 56.070176 C 43.162255 56.036106 43.235927 56.013298 43.301536 55.990098 C 43.477486 55.926538 43.419959 55.701938 43.268333 55.695176 C 43.367001 55.617362 43.461068 55.532086 43.551536 55.447129 C 43.655114 55.324718 43.551055 55.184995 43.434349 55.191269 z M 55.02224 55.21666 C 54.870663 55.208897 54.792624 55.429544 54.961693 55.509629 C 55.778974 55.897309 56.609498 56.260073 57.395286 56.710801 C 57.579784 56.816628 57.758504 56.930324 57.940208 57.040879 C 58.737282 57.538849 59.447843 58.154725 60.135521 58.790879 C 60.492595 59.104956 60.827402 59.444104 61.188255 59.753769 C 61.473361 59.976128 61.790422 60.152156 62.080833 60.367051 C 62.347788 60.592061 62.598441 60.838099 62.842552 61.087754 C 63.119487 61.391201 63.468789 61.607263 63.817161 61.818223 C 63.889931 61.858553 63.962086 61.900949 64.035911 61.939316 C 64.260123 62.055836 64.380981 62.104567 64.612083 62.21666 C 64.976679 62.393503 65.334094 62.582067 65.690208 62.775254 C 66.103114 63.000681 66.507179 63.245034 66.885521 63.525254 C 67.057907 63.652933 67.135538 63.720947 67.29763 63.855332 C 67.569928 64.077208 67.785113 64.349934 67.981224 64.638535 C 68.063207 64.766486 68.141978 64.896077 68.221458 65.025254 C 67.878526 64.799086 67.559842 64.538245 67.244896 64.275254 C 67.106359 64.15957 66.967033 64.04374 66.82888 63.927598 L 66.403099 63.572129 C 65.730491 63.002101 64.973143 62.55037 64.227318 62.085801 C 63.585908 61.68761 62.947435 61.286613 62.317161 60.870957 C 61.763916 60.496132 61.202814 60.130383 60.668724 59.728379 C 60.235644 59.416496 59.853835 59.043767 59.465599 58.679551 C 59.116242 58.371925 58.779675 58.049505 58.42849 57.744004 C 58.282584 57.630381 58.153854 57.489208 57.994896 57.392441 C 57.951966 57.366311 57.906517 57.345599 57.862083 57.322129 C 57.672076 57.224109 57.533404 57.493638 57.723411 57.59166 C 57.755821 57.60783 57.789958 57.621948 57.821068 57.640488 C 57.972245 57.730618 58.090363 57.866439 58.229271 57.972519 C 58.577802 58.275242 58.911793 58.59353 59.258568 58.898301 C 59.654787 59.270006 60.045154 59.652216 60.487083 59.970566 C 61.02641 60.375999 61.590512 60.744953 62.149193 61.12291 C 62.781658 61.539988 63.423528 61.944052 64.067161 62.343613 C 64.801219 62.800852 65.547599 63.243673 66.20974 63.804551 L 66.635521 64.158066 C 66.774252 64.27469 66.912389 64.391549 67.051536 64.507676 C 67.451279 64.841282 67.855986 65.174887 68.307396 65.437363 C 68.351756 65.458953 68.579976 65.601377 68.662865 65.533066 C 68.858041 65.372223 68.713365 65.234562 68.625755 65.09752 C 68.485828 64.892659 68.366156 64.676694 68.231224 64.468613 C 68.018856 64.156724 67.783237 63.860967 67.489036 63.620957 C 67.318225 63.479526 67.24333 63.413802 67.061302 63.27916 C 66.673088 62.992007 66.258213 62.740865 65.83474 62.509629 C 65.473499 62.313771 65.110782 62.122593 64.74099 61.943223 C 64.527962 61.839891 64.389236 61.782857 64.182396 61.675644 C 64.111976 61.639145 64.042825 61.598795 63.973411 61.56041 C 63.646627 61.362883 63.316774 61.161727 63.057396 60.876816 C 62.801874 60.615809 62.541258 60.35856 62.260521 60.124863 C 61.975601 59.914744 61.667216 59.737923 61.385521 59.523301 C 61.027201 59.216573 60.695215 58.881246 60.340599 58.570176 C 59.638065 57.920362 58.91289 57.291339 58.098411 56.783066 C 57.912362 56.670015 57.728696 56.551482 57.539818 56.443223 C 56.749146 55.990033 55.91487 55.626012 55.092552 55.236191 C 55.0684 55.22475 55.043893 55.217769 55.02224 55.21666 z M 42.727318 55.994004 C 42.702839 56.01696 42.676561 56.038852 42.649193 56.058457 C 42.508602 56.164222 42.381968 56.263985 42.205833 56.306504 C 41.810486 56.438826 41.408357 56.556122 41.004661 56.660019 C 40.638306 56.760845 40.275965 56.876297 39.92263 57.015488 C 39.978178 56.977524 40.056799 56.923528 40.102318 56.896348 C 40.333559 56.758269 40.588002 56.664951 40.842552 56.579941 C 41.357825 56.408303 41.879304 56.253607 42.401146 56.103379 C 42.509745 56.068002 42.619621 56.03308 42.727318 55.994004 z M 49.832786 56.697129 C 49.851635 56.7025 49.870592 56.707338 49.889427 56.712754 C 49.876347 56.710253 49.863371 56.707792 49.850365 56.704941 C 49.844592 56.70216 49.838559 56.699909 49.832786 56.697129 z M 50.832786 56.921738 C 50.754217 56.978923 50.673683 57.033935 50.590599 57.085801 C 50.572219 57.114681 50.579205 57.092468 50.600365 57.109238 C 50.609765 57.116738 50.576188 57.108272 50.565208 57.103379 C 50.528128 57.086799 50.498058 57.066355 50.463646 57.044785 C 50.443856 57.031009 50.423045 57.019141 50.403099 57.005723 C 50.548034 56.986767 50.691446 56.958705 50.832786 56.921738 z M 37.914818 58.687363 C 37.902611 58.719167 37.888846 58.751121 37.871849 58.781113 C 37.704074 59.134319 37.542039 59.492124 37.330833 59.822129 C 37.203149 60.016159 37.128834 60.132679 36.989036 60.324082 C 36.624291 60.823471 36.218767 61.288195 35.801536 61.744004 C 35.028365 62.583348 34.253654 63.424161 33.416771 64.201035 C 32.96247 64.608865 32.49549 65.005169 32.000755 65.363145 C 32.022149 65.329065 32.041778 65.293669 32.063255 65.259629 C 32.163474 65.099649 32.262911 64.939918 32.373802 64.786973 C 32.526098 64.575887 32.698629 64.380014 32.862083 64.177598 C 32.990036 64.015623 33.111811 63.851032 33.211693 63.669785 C 33.332651 63.458626 33.43459 63.235095 33.571068 63.033066 C 33.780482 62.724574 34.002022 62.425192 34.254661 62.150254 C 34.606672 61.741671 34.967256 61.3411 35.326927 60.939316 C 35.586275 60.720154 35.837134 60.490184 36.088646 60.263535 C 36.595875 59.834875 37.086837 59.385315 37.592552 58.954941 C 37.699119 58.86425 37.806892 58.77644 37.914818 58.687363 z M 36.170677 59.544785 C 35.839041 59.921534 35.501148 60.293293 35.164818 60.665879 C 35.147285 60.685471 35.129618 60.704883 35.112083 60.724473 C 34.689333 61.080449 34.244185 61.408078 33.742943 61.650254 C 33.661413 61.684014 33.581665 61.721467 33.498802 61.751816 C 33.446572 61.770946 33.391792 61.782271 33.338646 61.798691 C 33.334094 61.80009 33.328783 61.801901 33.323021 61.802598 C 33.358188 61.557689 33.494725 61.350082 33.662865 61.171738 C 33.721335 61.122368 33.778143 61.070151 33.838646 61.023301 C 34.022873 60.880643 34.15509 60.799855 34.356224 60.673691 C 34.759638 60.420647 35.166132 60.172743 35.567161 59.915879 C 35.77483 59.786746 35.972124 59.666488 36.170677 59.544785 z M 33.293724 61.814316 C 33.294259 61.812871 33.302082 61.819944 33.305443 61.822129 C 33.308769 61.842154 33.324207 61.860792 33.330833 61.880723 C 33.334883 61.892925 33.29038 61.823349 33.293724 61.814316 z " />
  </g>
  <g
     id="layer3"
     inkscape:label="Image 2"
     transform="translate(-29.949974,-40.417832)"
     inkscape:groupmode="layer"
     style="display:inline" />
</svg>
