<?xml version="1.0" encoding="UTF-8" standalone="no"?>
<!-- Created with Inkscape (http://www.inkscape.org/) -->

<svg
   width="164.75372mm"
   height="128.92165mm"
   viewBox="0 0 164.75372 128.92165"
   version="1.1"
   id="svg4498"
   inkscape:version="1.2.2 (732a01da63, 2022-12-09)"
   sodipodi:docname="fracture.svg"
   xmlns:inkscape="http://www.inkscape.org/namespaces/inkscape"
   xmlns:sodipodi="http://sodipodi.sourceforge.net/DTD/sodipodi-0.dtd"
   xmlns="http://www.w3.org/2000/svg"
   xmlns:svg="http://www.w3.org/2000/svg">
  <sodipodi:namedview
     id="namedview4500"
     pagecolor="#505050"
     bordercolor="#ffffff"
     borderopacity="1"
     inkscape:showpageshadow="0"
     inkscape:pageopacity="0"
     inkscape:pagecheckerboard="1"
     inkscape:deskcolor="#505050"
     inkscape:document-units="mm"
     showgrid="false"
     inkscape:zoom="1.0129245"
     inkscape:cx="88.851636"
     inkscape:cy="187.57568"
     inkscape:window-width="2400"
     inkscape:window-height="1261"
     inkscape:window-x="2391"
     inkscape:window-y="-9"
     inkscape:window-maximized="1"
     inkscape:current-layer="layer1" />
  <defs
     id="defs4495" />
  <g
     inkscape:label="Layer 1"
     inkscape:groupmode="layer"
     id="layer1"
     transform="translate(-21.05597,-102.32463)">
    <path
       style="fill:#000000;stroke-width:0.264583"
       d="m 21.05597,168.44776 1.847015,-2.21642 4.063433,-12.5597 -1.108209,18.83955 -0.369403,-8.49627 7.018656,11.08209 -1.10821,6.27985 -7.388058,1.10821 15.145522,-18.83955 7.018658,-11.08209 15.884326,8.86567 -4.432834,13.29851 -19.208956,-17.73134 16.253732,-10.71269 11.820895,1.47761 -17.731343,42.11194 15.514923,-14.77612 -12.190296,-17.36194 -12.190298,-14.77612 62.429107,22.90299 -7.018661,18.47015 -31.399252,-14.40672 27.335818,-24.75 16.992535,34.35448 -21.055966,-4.43284 -3.324627,12.5597 28.813433,19.57836 18.83955,-20.31716 -10.71268,-17.36194 -32.507469,18.83955 33.246269,-9.23507 15.88433,-12.92911 5.91045,17.36194 31.02985,47.65299 -41.37314,-16.25374 v -40.63432 l 12.1903,-11.8209 8.86567,-33.24627 -1.47761,14.77612 30.66045,35.83209 2.58582,14.03731 -11.8209,-4.43283 -12.9291,-30.66045 -0.73881,-32.13806 2.58582,-24.38059 -21.42537,25.1194 -3.32462,58.36567 -29.92165,1.47761 -13.298505,-13.66791 -25.119401,6.64926 -36.940299,5.91044 -9.604477,-13.29851 z"
       id="path5038" />
    <path
       style="fill:#000000;stroke-width:0.264583"
       d="m 127.81343,163.27612 -5.17164,-4.06343 -0.3694,-5.91045 c 0,0 11.08209,19.94776 5.54104,9.97388 z"
       id="path5045" />
    <path
       style="fill:#000000;stroke-width:0.264583"
       d="m 130.39925,166.60075 -2.58582,-2.95523 -0.3694,-1.1082 25.85821,16.62313 -11.08209,-4.43284 -1.84702,0.36941 -4.06343,-7.38806"
       id="path5047" />
    <path
       style="fill:#000000;stroke-width:0.264583"
       d="m 135.20149,165.86194 v 0 l 38.04851,30.66045 -3.69403,-10.34328 -1.84702,-12.92911 -1.84701,19.20896 0.3694,-1.84702 -12.5597,-12.5597 -11.45149,-9.97388 -4.43284,-1.10821 z"
       id="path5049" />
    <path
       style="fill:#000000;stroke-width:0.264583"
       d="M 124.85821,212.40672 Z"
       id="path5051" />
    <path
       style="fill:#000000;stroke-width:0.264583"
       d="m 126.79757,207.60448 v 0 l -1.56996,1.56996 1.29291,2.03172"
       id="path5053" />
    <path
       style="fill:#000000;stroke-width:0.264583"
       d="m 130.39925,215.63899 0.3694,0.92351 1.20056,2.12407 h -1.66231 l -0.5541,-2.12407 0.0923,-0.7388 z"
       id="path5055" />
    <path
       style="fill:#000000;stroke-width:0.264583"
       d="m 123.01119,214.99254 -0.0923,0.92351 -0.92351,3.69403 2.12407,0.7388 v -3.13992 l -0.1847,-2.03172 -0.3694,-0.46175 z"
       id="path5057" />
    <path
       style="fill:#000000;stroke-width:0.264583"
       d="m 128.09048,218.68657 0.46176,0.73881 z"
       id="path5059" />
    <path
       style="fill:#000000;stroke-width:0.264583"
       d="m 115.43843,210.5597 0.64646,1.47761 -1.47761,1.47762 -0.27706,-0.64646 1.20056,-1.75466 z"
       id="path5061" />
    <path
       style="fill:#000000;stroke-width:0.264583"
       d="m 122.73414,208.15858 -0.83116,-0.0924 -1.56996,2.12407 1.38526,0.1847 0.64646,-0.5541 0.83115,2.30877 -4.52518,0.7388 0.92351,0.83116 2.03171,0.27705 1.66232,-1.47761 0.1847,-0.64646 -0.0923,-2.12406 -0.64646,-0.83116 z"
       id="path5063" />
    <path
       style="fill:#000000;stroke-width:0.264583"
       d="m 129.84515,136.86381 1.66231,1.29291 2.21642,3.87873 -2.21642,-1.10821 -0.73881,-2.03171 z"
       id="path5065" />
    <path
       style="fill:#000000;stroke-width:0.264583"
       d="m 131.69216,151.82463 -2.21642,2.58582 2.21642,-2.58582 0.55411,-2.03172 v 4.06344"
       id="path5067" />
    <path
       style="fill:#000000;stroke-width:0.264583"
       d="M 130.76865,155.33396 Z"
       id="path5069" />
    <path
       style="fill:#000000;stroke-width:0.264583"
       d="m 149.42351,165.49254 1.66231,6.09515 1.10821,-4.06343 -0.36941,-1.29291 z"
       id="path5071" />
    <path
       style="fill:#000000;stroke-width:0.264583"
       d="m 157.55037,192.82836 v 0.73881 l 2.03172,5.54104 1.66231,-2.03171 -0.5541,-1.84702 -1.66232,-1.66231 -0.3694,-0.18471 -1.29291,1.29291 z"
       id="path5073" />
    <path
       style="fill:#000000;stroke-width:0.264583"
       d="m 164.38433,209.08209 h 1.29291 l 0.9235,-0.5541 0.55411,3.69403 z"
       id="path5075" />
    <path
       style="fill:#000000;stroke-width:0.264583"
       d="m 173.6194,204.27985 -0.73881,4.61754 1.47762,-0.5541 0.5541,-2.03172 v -0.92351 z"
       id="path5077" />
    <path
       style="fill:#000000;stroke-width:0.264583"
       d="m 169.74067,200.77053 v 0.9235 l 0.3694,2.58582 z"
       id="path5079" />
    <path
       style="fill:#000000;stroke-width:0.264583"
       d="m 173.8041,217.02426 1.47761,4.24813 0.55411,-2.40112 z"
       id="path5081" />
    <path
       style="fill:#000000;stroke-width:0.264583"
       d="m 156.81157,158.84329 -1.10821,0.7388 0.3694,1.66232 0.5541,-1.66232 z"
       id="path5083" />
    <path
       style="fill:#000000;stroke-width:0.264583"
       d="m 157.55037,167.15485 3.69403,3.32463 -0.5541,-0.92351 -0.92351,-2.40112 z"
       id="path5085" />
    <path
       style="fill:#000000;stroke-width:0.264583"
       d="m 173.8041,157.36568 -0.1847,4.61753"
       id="path5087" />
    <path
       style="fill:#000000;stroke-width:0.264583"
       d="M 175.09701,157.73508 Z"
       id="path5089" />
    <path
       style="fill:#000000;stroke-width:0.264583"
       d="m 171.95709,160.6903 0.3694,0.73881 3.69403,-1.29291 -3.69403,-4.06344 -3.32463,4.24814 z"
       id="path5091" />
    <path
       style="fill:#000000;stroke-width:0.264583"
       d="m 168.44776,152.00933 0.1847,-0.92351 2.58582,-0.3694 -0.5541,2.58582 -2.03172,0.3694 z"
       id="path5093" />
    <path
       style="fill:#000000;stroke-width:0.264583"
       d="m 173.9888,152.56343 1.10821,1.47762 0.55411,-0.92351 z"
       id="path5095" />
    <path
       style="fill:#000000;stroke-width:0.264583"
       d="m 173.9888,147.9459 3.87874,0.1847 -1.29291,-0.92351 -1.29292,0.1847"
       id="path5097" />
    <path
       style="fill:#000000;stroke-width:0.264583"
       d="m 128.18283,157.18097 1.10821,-0.9235 2.03172,-0.73881 0.92351,2.03172 -0.92351,-0.1847 -0.92351,0.3694 -1.29291,0.1847 z"
       id="path5099" />
    <path
       style="fill:#000000;stroke-width:0.264583"
       d="m 71.848879,136.30971 2.40112,4.98693 0.369403,-3.32462 -0.1847,-0.92351"
       id="path5101" />
    <path
       style="fill:#000000;stroke-width:0.264583"
       d="m 74.988805,148.3153 -1.29291,3.13993 1.662314,1.47761 1.847014,-0.1847 c 0,0 -4.432835,-8.86567 -2.216418,-4.43284 z"
       id="path5103" />
    <path
       style="fill:#000000;stroke-width:0.264583"
       d="m 81.453357,149.97761 0.923507,0.1847 1.847016,0.55411 -1.847016,1.84701 z"
       id="path5105" />
    <path
       style="fill:#000000;stroke-width:0.264583"
       d="m 81.63806,146.28358 1.662313,-0.1847 z"
       id="path5107" />
    <path
       style="fill:#000000;stroke-width:0.264583"
       d="m 69.632461,189.13433 3.878731,3.69403 -2.401117,-0.55411 z"
       id="path5109" />
    <path
       style="fill:#000000;stroke-width:0.264583"
       d="m 35.462686,153.48694 1.847015,-2.95522 -2.770522,-0.36941 z"
       id="path5111" />
    <path
       style="fill:#000000;stroke-width:0.264583"
       d="m 39.895522,152.74814 0.692631,-0.0231 -0.542561,-0.26551 z"
       id="path5113" />
    <path
       style="fill:#000000;stroke-width:0.264583"
       d="m 39.479944,153.82171 -0.08081,0.36941 0.30014,0.0577 -0.09235,-0.16162 0.138526,-0.24242 z"
       id="path5115" />
    <path
       style="fill:#000000;stroke-width:0.264583"
       d="m 36.986474,153.79863 -0.126983,0.31168 0.207789,0.25396 0.150071,-0.24242 -0.138527,-0.0808 0.15007,-0.17316 -0.02309,-0.41558 z"
       id="path5117" />
    <path
       style="fill:#000000;stroke-width:0.264583"
       d="m 38.741138,147.70348 -0.623368,0.51947 0.230877,0.0577 0.02309,-0.11544 0.39249,-0.26551 z"
       id="path5119" />
  </g>
</svg>
