<?xml version="1.0" standalone="no"?>
<!DOCTYPE svg PUBLIC "-//W3C//DTD SVG 20010904//EN"
 "http://www.w3.org/TR/2001/REC-SVG-20010904/DTD/svg10.dtd">
<svg version="1.0" xmlns="http://www.w3.org/2000/svg"
 width="550.000000pt" height="550.000000pt" viewBox="0 0 550.000000 550.000000"
 preserveAspectRatio="xMidYMid meet">
<metadata>
Created by potrace 1.14, written by Peter Selinger 2001-2017
</metadata>
<g transform="translate(0.000000,550.000000) scale(0.100000,-0.100000)"
fill="#000000" stroke="none">
<path d="M2608 5495 c-2 -1 -41 -5 -88 -9 -47 -3 -96 -8 -110 -10 -14 -3 -56
-9 -95 -15 -72 -11 -80 -13 -175 -32 -203 -41 -536 -171 -755 -294 -80 -45
-273 -178 -365 -252 -288 -231 -550 -555 -715 -882 -141 -281 -244 -601 -270
-841 -4 -30 -8 -61 -10 -68 -19 -57 -26 -436 -12 -587 11 -119 16 -148 44
-295 76 -402 261 -808 520 -1143 194 -251 414 -451 698 -636 124 -81 379 -210
465 -236 14 -4 30 -11 35 -15 15 -11 220 -77 310 -99 75 -18 272 -53 375 -66
80 -10 443 -13 520 -4 134 15 174 20 194 24 12 2 37 7 56 9 160 23 348 77 570
166 356 141 732 408 1001 711 278 313 505 732 604 1114 5 17 9 35 11 40 6 20
45 221 49 253 11 77 14 101 22 172 15 144 8 467 -12 600 -3 19 -10 64 -15 100
-35 224 -108 461 -215 700 -202 449 -553 854 -1000 1155 -126 84 -403 221
-560 276 -66 23 -129 45 -140 49 -21 8 -97 29 -124 35 -9 2 -45 10 -81 18 -56
13 -125 25 -180 32 -41 5 -130 17 -165 22 -41 5 -382 13 -387 8z"/>
</g>
</svg>
